<?xml version="1.0" encoding="UTF-8" standalone="no"?>
<svg
   xmlns:dc="http://purl.org/dc/elements/1.1/"
   xmlns:cc="http://creativecommons.org/ns#"
   xmlns:rdf="http://www.w3.org/1999/02/22-rdf-syntax-ns#"
   xmlns:svg="http://www.w3.org/2000/svg"
   xmlns="http://www.w3.org/2000/svg"
   clip-rule="evenodd"
   fill-rule="evenodd"
   stroke-linejoin="round"
   stroke-miterlimit="2"
   version="1.1"
   viewBox="0 0 544 175"
   xml:space="preserve"
   id="svg84"><defs
     id="defs88" /><metadata
     id="metadata2"><rdf:RDF><cc:Work
         rdf:about=""><dc:format>image/svg+xml</dc:format><dc:type
           rdf:resource="http://purl.org/dc/dcmitype/StillImage" /><dc:title></dc:title></cc:Work></rdf:RDF></metadata><path
     d="m181.8 54.68c-3.252 0.2083-6.839 4.175-9.469 15.18-0.5027 2.256-0.955 4.699-1.35 6.686-4.274 0.1158-8.909-0.7515-13.28-2.877-13.13-6.378-16.85-8.682-32.25-10.28s-14.26 2.184-14.26 2.184l-3.088 9.764s19.2-5.852 45.89 3.512c5.986 2.1 11.38 2.695 16.08 2.295l-10.37 52.24h12.7l2.812-15.61 10.07 15.61h12.88l-12.88-20.14c21.69-9.165 17.88-31.94 4.99-24.05-4.356 2.54-8.803 7.803-11.89 12.07 1.733-9.027 3.297-16.44 4.914-24.79 4.396-3.174 6.772-7.371 6.641-10.83-0.1935-5.083-3.881-11.23-8.145-10.96zm5.404 10.23c0.4214 0.07697 0.4797 0.9152-0.5195 3.395-3.014 6.25-2.758 1.375-1.42-1.777 0.2576-0.5563 1.398-1.716 1.939-1.617zm5.119 28.28c3.779 0.4309-0.8662 13.18-13.57 18.5-0.726 0.363-1.542 0.7249-2.541 1.088l0.9082-4.355c3.176-3.992 8.801-12.34 13.07-14.61 0.8848-0.499 1.597-0.6885 2.137-0.627z"
     fill="#838383"
     fill-rule="nonzero"
     id="path4" /><path
     d="m507.2 88.01c-16.24 0.544-23.41 15.15-24.68 29.76-1.633 18.78 19.06 21.42 28.68 7.078 0.9286 12.29 14.63 11.24 23.47 2.082 0.46 1.909 0.8516 3.379 0.9395 3.705 0.361 1.338 4.163 10.56-4.148 15.42-6.368 3.724-59.78-5.55-217.6-2.199-223.2 4.738-313 8.934-313 8.934l14.69 19.09s86.12-10.9 151.8-12.8c65.67-1.898 276.5-10.17 356.9-6.416 24.4 1.14 15.91-19.6 13.14-28.87 1.033-1.879 2.228-3.671 3.18-5.592 0 0 3.545-11.43-5.008-12.15-4.428-0.3757-3.148 9.592-1.627 16.97-4.884 5.849-12.74 8.963-11.17 0.8203 2.087-10.44 3.994-18.51 6.807-32.4l0.7266-3.447zm3.006 4.23c2.092 0.02206 4.059 1.284 5.615 4.117l-4.355 22.5c-12.52 16.88-18.51 8.349-15.06-8.076 2.283-10.57 8.457-18.6 13.8-18.54zm26.24 18.91c0.8616 0.0231 1.565 0.9192 1.535 2.898-0.0403 2.532-0.947 3.72-1.021 3.814-0.2772 0.545-0.5417 1.143-0.7676 1.602-0.9021-4.013-1.691-7.429-0.6387-8.055 0.3005-0.1788 0.6054-0.2675 0.8926-0.2598z"
     fill="#838383"
     fill-rule="nonzero"
     id="path6" /><g
     fill="#838383"
     fill-rule="nonzero"
     id="g28"><path
       d="m50.46 88.74c0.908-4.265 0.908-8.258-0.182-11.62-2.45-6.897-9.074-10.89-17.15-11.8-5.808-0.545-11.43 0.453-16.7 3.085-9.438 4.809-11.25 14.7-6.806 22.78 1.633 2.994 4.809 6.443 7.804 8.893 2.995 2.178 5.082 3.63 8.621 6.17 3.266 2.632 7.259 6.625 5.535 11.34-1.361 4.265-4.356 7.168-7.622 8.53-6.262 2.994-13.79 1.451-15.25-2.814-1.27-3.539 1.634-8.076 8.621-10.71l-8.348-8.53c-6.806 3.357-9.801 11.07-8.802 17.79 3.448 21.96 52.18 14.97 46.37-13.34-0.726-3.539-2.722-6.17-5.354-8.348-2.541-2.45-5.898-4.538-9.074-6.715-2.904-1.815-5.99-4.265-7.441-6.08-1.634-2.087-1.906-2.45-2.269-5.264-0.363-2.813 1.543-6.805 4.265-8.62 2.541-1.724 5.535-2.541 8.076-2.36 6.897 0.998 4.991 8.258 3.448 12.16z"
       id="path8" /><path
       d="m120.5 118c-2.994 8.62-15.15 13.07-13.61 5.898 1.361-7.35 1.452-7.623 2.178-11.52l1.452-8.076c4.355-21.32-11.98-20.42-21.51-7.441-0.816-12.43-13.88-11.34-21.14-2.632l1.179-6.17h-12.52l-9.075 45.37h12.52l6.261-31.22c0.091-0.182 0.091-0.273 0.182-0.363 3.72-7.623 12.89-13.34 11.16-3.72-1.814 9.891-3.72 21.14-6.261 35.3h11.98c0.454-2.359 4.628-26.32 5.173-29.13 0.09-0.363 0.181-0.544 0.272-0.726 3.266-8.348 13.07-16.06 10.89-5.717-1.452 7.895-2.904 15.15-4.174 22.14-3.812 20.24 21.32 17.51 28.58-1.997z"
       id="path10" /><path
       d="m167.2 97.81c-2.904 1.997-6.443 3.721-10.07 4.628 0-2.45-0.453-4.628-1.179-6.352-4.356-10.53-16.97-10.07-25.41-5.172-8.439 4.809-13.7 13.97-14.7 22.78-0.908 8.349 2.178 16.15 10.62 19.24 10.71 4.084 27.59-3.902 30.22-24.59 3.539-1.634 7.169-4.175 10.8-7.441zm-21.42 12.61c-2.359 14.97-8.62 19.42-12.98 16.88-8.076-4.537-3.993-24.41 0.544-30.94 5.173-7.168 10.89-1.179 12.34 5.536-1.361-0.545-2.723-1.361-3.902-2.45l-4.719 6.443c3.085 2.359 5.808 3.629 8.711 4.174z"
       id="path12" /><path
       d="m235.8 117.8c-4.265 7.078-11.62 12.52-18.6 9.256-3.902-1.906-5.535-6.987-5.626-11.34 7.804 0.272 15.43-2.541 19.51-10.07 2.722-5.354 2.632-12.25-1.996-15.97-5.173-4.355-16.97-2.087-23.87 8.621-8.439 13.43-8.167 35.12 8.984 35.66 10.34 0.272 17.78-3.086 24.86-16.15zm-23.87-7.35c0.998-5.082 2.632-9.165 4.537-12.07 3.267-5.173 7.26-6.897 9.075-5.536 2.268 1.815 0.634 19.06-13.7 18.6 0-0.272 0.091-0.635 0.091-0.998z"
       id="path14" /><path
       d="m277.2 65.15c-14.43 0-28.22 1.27-35.48 9.256-4.628 5.082-6.443 13.61-4.447 25.41l12.61-5.716c-2.995-4.084-5.989-9.619-3.63-15.24 2.722-4.628 11.25-5.536 18.33-6.08v50.49c0 2.644 1.081 5.174 2.992 7.003 1.911 1.828 4.486 2.796 7.128 2.68 1.893-0.084 3.219-1.245 1.448-1.35l-5.606-2.09-1.758-2.274s26.17-65.98 29.22-74.21c-1.015-0.248-1.584 1.559-1.584 1.559l-18.34 45.92z"
       id="path16" /><path
       d="m347.5 117.9c-2.995 8.53-16.24 16.33-14.25 5.989 2.087-10.44 3.993-18.51 6.806-32.4l0.726-3.448h-22.96c-16.24 0.544-23.41 15.15-24.68 29.76-1.633 18.78 19.06 21.42 28.68 7.078 1.18 15.61 22.96 9.71 29.22-6.987zm-25.41 0.998c-12.52 16.88-18.51 8.348-15.06-8.077 3.176-14.7 13.88-24.5 19.42-14.43z"
       id="path18" /><path
       d="m364.3 90.74 0.545-2.722h-12.8l-13.52 68.06h12.8l5.082-26.13c1.996 2.178 7.531 3.993 11.25 3.993 3.539 0 6.715-1.18 9.165-3.177 2.359-1.633 4.084-3.811 5.445-6.442 2.813-4.991 4.174-11.07 4.265-16.88 0.09-12.52-8.076-26.22-22.23-16.7zm9.166 22.32c-0.817 4.356-2.36 8.349-4.175 10.89-2.994 4.174-7.804 6.17-11.8 0.816l5.989-29.58c12.16-8.167 11.62 9.165 9.982 17.88z"
       id="path20" /><path
       d="m425.2 117.8c-4.265 7.078-11.62 12.52-18.6 9.256-3.902-1.906-5.535-6.987-5.626-11.34 7.804 0.272 15.43-2.541 19.51-10.07 2.722-5.354 2.632-12.25-1.996-15.97-5.173-4.355-16.97-2.087-23.87 8.621-8.439 13.43-8.167 35.12 8.984 35.66 10.34 0.272 17.78-3.086 24.86-16.15zm-23.87-7.35c0.998-5.082 2.632-9.165 4.537-12.07 3.267-5.173 7.26-6.897 9.075-5.536 2.268 1.815 0.634 19.06-13.7 18.6 0-0.272 0.091-0.635 0.091-0.998z"
       id="path22" /><path
       d="m427.9 126.7c0 1.996 0.726 3.721 2.087 5.172 1.452 1.362 3.176 2.088 5.173 2.088 1.996 0 3.72-0.727 5.263-2.088 1.361-1.451 2.087-3.176 2.087-5.172s-0.726-3.721-2.087-5.263c-1.543-1.361-3.267-2.087-5.263-2.087-1.997 0-3.721 0.726-5.173 2.087-1.361 1.542-2.087 3.267-2.087 5.263z"
       id="path24" /><path
       d="m485.9 117.8c-4.447 5.626-11.07 11.98-17.6 9.437-4.174-1.633-6.533-7.078-5.172-16.42 0.908-5.808 3.539-13.25 8.711-16.97 1.997-1.451 3.902-1.724 4.991-0.997 1.089 0.726 1.362 3.629-0.726 7.622l4.175 7.35c0.453-0.726 0.907-1.361 1.27-2.177 2.722-5.082 1.815-12.25-2.813-15.88-3.176-2.541-7.895-2.904-12.7-0.907-8.167 3.357-12.98 12.34-14.7 21.05-2.541 12.34 1.361 24.59 14.52 24.05 9.982-0.363 18.06-6.806 23.41-16.15z"
       id="path26" /></g><path
     d="m183.9 53.4c-6.251 3.063-8.612 11.73-9.568 15.59-0.4116 2.012-0.8361 4.212-1.246 6.277-4.276 0.1166-8.911-0.7509-13.29-2.877-13.13-6.378-16.85-8.682-32.25-10.28-15.4-1.6-14.26 2.186-14.26 2.186l-3.088 9.762s19.2-5.852 45.89 3.512c5.987 2.101 11.39 2.695 16.08 2.295l-3.367 16.96c-2.82 1.872-6.186 3.478-9.639 4.342 0-2.45-0.4527-4.628-1.18-6.352-4.356-10.53-16.97-10.07-25.41-5.174-8.439 4.81-13.7 13.98-14.7 22.78-0.3791 3.49-0.0488 6.879 1.066 9.873-4.608 4.515-11.11 5.65-9.959 0.291 1.361-7.351 1.452-7.623 2.178-11.53l1.453-8.076c4.356-21.32-11.98-20.42-21.51-7.441-0.817-12.43-13.88-11.34-21.14-2.631l1.18-6.17h-12.52l-9.072 45.37h12.52l6.262-31.21c0.09-0.182 0.09064-0.2733 0.1816-0.3633 3.721-7.623 12.89-13.34 11.16-3.721-1.815 9.891-3.722 21.14-6.262 35.3h11.98c0.453-2.36 4.628-26.32 5.172-29.13 0.09-0.363 0.1815-0.5436 0.2715-0.7246 3.267-8.349 13.07-16.06 10.89-5.719-1.452 7.895-2.904 15.15-4.174 22.14-3.115 16.54 13.11 17.73 23.1 6.963 1.756 2.618 4.327 4.73 7.84 6.014 10.71 4.084 27.59-3.902 30.22-24.59 3.043-1.404 6.153-3.484 9.273-6.115l-6.188 31.16h12.7l2.814-15.61 10.07 15.61h12.88l-12.88-20.14c21.69-9.166 17.88-31.94 4.99-24.05-4.356 2.541-8.802 7.805-11.89 12.07 1.733-9.027 3.295-16.44 4.912-24.79 4.396-3.174 6.77-7.373 6.639-10.84-0.1935-5.083-3.879-11.23-8.143-10.96zm5.404 10.23c0.4214 0.07683 0.4802 0.9157-0.5195 3.395-0.5321 1.32-1.392 2.513-2.504 3.561 0.1683-0.6806 0.2677-1.514 0.332-2.002 0.0956-0.8063 0.305-2.37 0.752-3.334 0.2576-0.5563 1.398-1.718 1.939-1.619zm-49.05 28.2c3.467-0.1095 6.48 4.165 7.479 8.781-1.361-0.544-2.722-1.36-3.902-2.449l-4.719 6.441c3.086 2.36 5.809 3.63 8.713 4.174v0.3633c-2.36 14.97-8.621 19.42-12.98 16.88-8.076-4.537-3.992-24.41 0.5449-30.94 1.616-2.24 3.285-3.196 4.861-3.246zm54.17 0.07812c3.779 0.4304-0.8662 13.18-13.57 18.5-0.726 0.363-1.543 0.7268-2.541 1.09l0.9062-4.357c3.176-3.993 8.803-12.34 13.07-14.61 0.8848-0.4991 1.597-0.6884 2.137-0.627z"
     fill-rule="nonzero"
     id="path30" /><path
     d="m474.2 86.27c-1.948-0.01465-4.034 0.408-6.139 1.281-8.167 3.358-12.98 12.34-14.7 21.05-2.541 12.34 1.362 24.59 14.52 24.05 6.827-0.2483 12.76-3.344 17.54-8.264 3.982 11.29 19.78 11.19 27.83-0.8106 0.9293 12.29 14.63 11.24 23.47 2.082 0.46 1.908 0.8514 3.379 0.9395 3.705 0.36 1.339 4.164 10.56-4.148 15.42-5.795 3.389-50.58-3.984-177.6-2.812l2.588-13.31c1.996 2.178 7.532 3.994 11.25 3.994 3.539 0 6.716-1.179 9.166-3.176 2.36-1.633 4.084-3.811 5.445-6.443 2.813-4.991 4.173-11.07 4.264-16.88 0.0681-9.478-4.591-19.63-13-19.88-0.2712-8e-3 -0.5472-0.0052-0.8262 0.0078-2.5 0.1166-5.31 1.088-8.406 3.172l0.543-2.721h-12.79l-6.697 33.71c-4.703 6.651-13.86 10.86-12.18 2.129 2.088-10.44 3.994-18.51 6.807-32.4l0.7246-3.447h-22.96c-16.24 0.544-23.41 15.15-24.68 29.76-1.634 18.78 19.05 21.42 28.67 7.078 0.8904 11.79 13.53 11.3 22.36 3.17l-3.053 15.37c-8.741 0.1158-17.82 0.2694-27.31 0.4707-223.2 4.738-313 8.934-313 8.934l14.69 19.09s86.12-10.9 151.8-12.8c32.66-0.944 101.2-3.464 171.8-5.299l-0.4531 2.279h12.79l0.5059-2.598c67.14-1.656 134.2-2.576 172.2-0.8008 24.4 1.14 15.9-19.6 13.14-28.86 1.315-1.856 2.788-4.973 3.158-5.947 0 0 3.567-11.07-4.986-11.8-4.428-0.3757-3.146 9.591-1.625 16.97-4.884 5.85-12.75 8.966-11.17 0.8223 2.087-10.44 3.992-18.51 6.805-32.4l0.7266-3.447h-22.96c-16.24 0.544-23.41 15.15-24.68 29.76-0.1189 1.367-0.1065 2.637-2e-3 3.832-4.109 4.216-9.2 7.568-14.25 5.605-4.174-1.633-6.533-7.079-5.172-16.43 0.908-5.807 3.538-13.25 8.711-16.97 1.996-1.452 3.903-1.724 4.992-0.998s1.36 3.63-0.7266 7.623l4.174 7.35c0.453-0.726 0.9075-1.361 1.27-2.178 2.723-5.081 1.816-12.25-2.812-15.88-1.786-1.429-4.06-2.169-6.564-2.188zm-151.3 4.695c2.093 0.02215 4.058 1.284 5.615 4.117l-4.355 22.5c-12.52 16.88-18.51 8.349-15.06-8.076 2.283-10.57 8.457-18.6 13.8-18.54zm189.4 0c2.092 0.02215 4.058 1.284 5.615 4.117l-4.355 22.5c-12.52 16.88-18.51 8.349-15.06-8.076 2.283-10.57 8.457-18.6 13.8-18.54zm-141.1 0.8086c6.341 0.1589 5.733 12.93 4.406 20.01-0.816 4.356-2.359 8.349-4.174 10.89-2.995 4.175-7.804 6.17-11.8 0.8164l5.988-29.58c2.28-1.531 4.113-2.166 5.576-2.129zm167.3 18.1c0.8617 0.023 1.565 0.9199 1.535 2.898-0.0403 2.533-0.8148 3.53-0.9629 3.867-0.148 0.3373-0.5801 1.076-0.8262 1.549-0.9021-4.013-1.691-7.429-0.6387-8.055 0.3008-0.179 0.6054-0.2674 0.8926-0.2598z"
     fill-rule="nonzero"
     id="path32" /><g
     fill-rule="nonzero"
     id="g44"><path
       d="m52.5 87.46c0.908-4.264 0.908-8.257-0.181-11.62-2.45-6.896-9.075-10.89-17.15-11.8-5.808-0.544-11.43 0.454-16.7 3.086-9.437 4.809-11.25 14.7-6.806 22.78 1.634 2.994 4.81 6.442 7.804 8.893 2.995 2.177 5.082 3.629 8.621 6.17 3.267 2.632 7.26 6.624 5.535 11.34-1.361 4.265-4.355 7.169-7.622 8.53-6.261 2.995-13.79 1.452-15.24-2.813-1.271-3.539 1.633-8.076 8.621-10.71l-8.349-8.53c-6.806 3.358-9.8 11.07-8.802 17.79 3.448 21.96 52.18 14.97 46.37-13.34-0.726-3.539-2.722-6.171-5.354-8.349-2.54-2.45-5.898-4.537-9.074-6.715-2.904-1.815-5.989-4.265-7.441-6.08-1.633-2.087-1.906-2.45-2.269-5.263s1.543-6.806 4.265-8.621c2.541-1.724 5.536-2.54 8.077-2.359 6.896 0.998 4.99 8.258 3.448 12.16z"
       id="path34" /><path
       d="m237.8 116.5c-4.265 7.078-11.62 12.52-18.6 9.256-3.901-1.906-5.535-6.988-5.626-11.34 7.804 0.271 15.43-2.541 19.51-10.07 2.723-5.354 2.632-12.25-1.996-15.97-5.172-4.356-16.97-2.087-23.87 8.621-8.439 13.43-8.167 35.12 8.984 35.66 10.34 0.273 17.79-3.085 24.86-16.15zm-23.87-7.351c0.998-5.081 2.632-9.165 4.538-12.07 3.266-5.172 7.259-6.896 9.074-5.535 2.269 1.815 0.635 19.06-13.7 18.6 0-0.272 0.09-0.635 0.09-0.998z"
       id="path36" /><path
       d="m303.7 47.09c-0.5519 0.04842-0.8113 0.3729-0.9336 0.6797l-2.211 5.551c-0.346-0.118-0.768-0.2452-1.166-0.3262-0.37-0.076-1.495-0.3048-1.828 0.5312l-18.39 46.16 0.0703-35.82c-14.43 0-28.22 1.27-35.48 9.256-4.628 5.082-6.442 13.61-4.445 25.41l12.61-5.717c-2.994-4.083-5.99-9.617-3.631-15.24 2.723-4.628 11.25-5.536 18.33-6.08v50.17c0 2.77 1.1 5.426 3.059 7.385 1.817 1.817 4.238 2.883 6.791 3.029 0.0208 2e-3 0.0398 2e-3 0.0605 4e-3 0.1779 9e-3 0.3542 0.0254 0.5332 0.0254l-0.0371-0.0156c0.1079 5e-4 0.2241 0.0134 0.3281 8e-3 1.096-0.057 1.968-0.4626 2.578-1.186h0.0156c1e-3 -6e-3 0-0.0125 0-0.0195 0.241-0.289 0.4427-0.6266 0.5977-1.016l28.59-71.78c0.333-0.837-0.6458-1.437-0.9668-1.635-0.346-0.212-0.7393-0.4066-1.072-0.5566l2.211-5.551c0.163-0.409 0.1684-1.008-0.7266-1.539-0.445-0.263-1.114-0.5359-2.086-0.9199-0.972-0.383-1.646-0.6419-2.15-0.7539-0.2545-0.056-0.4723-0.07083-0.6562-0.05469zm-0.3164 0.5703c1e-3 0-6e-3 0.01888 0.01 0.04687 0.015 0.027 0.0487 0.05875 0.0957 0.09375 0.096 0.071 0.2457 0.1541 0.4297 0.2461 0.186 0.092 0.4037 0.1938 0.6387 0.2988 0.236 0.105 0.4882 0.2182 0.7422 0.3262 0.126 0.055 0.2539 0.1101 0.3789 0.1641 0.061 0.027 0.1236 0.05408 0.1856 0.08008l0.0859 0.03711 0.0918 0.03516c0.242 0.095 0.4682 0.1894 0.6602 0.2734 0.382 0.166 0.6309 0.2969 0.6309 0.2969s-0.2767-0.05406-0.6797-0.1641c-0.202-0.054-0.4346-0.1222-0.6836-0.2012l-0.0937-0.0293-0.0977-0.03516c-0.011-3e-3 -0.0242-0.0087-0.0351-0.01367l-0.0762 0.1895c0.137 0.06 0.2751 0.1197 0.4141 0.1797 0.339 0.143 0.68 0.2841 1 0.4121 0.118 0.044 0.2298 0.08786 0.3398 0.1309-0.033-0.01-0.0656-0.0222-0.0996-0.0332-0.312-0.102-0.6446-0.216-0.9746-0.332-0.33-0.12-0.6578-0.2404-0.9648-0.3594-0.152-0.061-0.3024-0.1178-0.4414-0.1758-0.139-0.056-0.2706-0.1111-0.3926-0.1621-0.244-0.101-0.4449-0.188-0.5859-0.25s-0.2227-0.09766-0.2227-0.09766 0.0779 0.04128 0.2148 0.1133c0.136 0.073 0.3314 0.1759 0.5664 0.2949 0.066 0.033 0.137 0.06847 0.209 0.1055l-1.668 4.184c0.091 0.042 0.1833 0.08586 0.2773 0.1309 0.089 0.04 0.1834 0.08009 0.2734 0.1211l1.662-4.17c0.018 0.01 0.0367 0.0193 0.0547 0.0293 0.08 0.037 0.1641 0.07528 0.2461 0.1133l-1.66 4.164c0.138 0.059 0.2741 0.1197 0.4141 0.1797 0.338 0.143 0.679 0.2832 1 0.4102 0.117 0.045 0.2308 0.08886 0.3398 0.1309-0.033-0.01-0.0646-0.01925-0.0996-0.03125-0.312-0.102-0.6436-0.215-0.9746-0.332-0.33-0.119-0.6578-0.2413-0.9648-0.3613-0.152-0.061-0.3005-0.1178-0.4395-0.1758-0.14-0.056-0.2725-0.1092-0.3945-0.1602-0.243-0.102-0.4449-0.19-0.5859-0.252s-0.2227-0.09766-0.2227-0.09766 0.0788 0.04223 0.2148 0.1152c0.136 0.073 0.3314 0.1749 0.5664 0.2949 0.066 0.033 0.137 0.06652 0.209 0.1035l-0.2793 0.7012c-0.361-0.15-0.7221-0.303-1.08-0.459l0.3125-0.7852c-0.047-0.022-0.0919-0.04255-0.1309-0.06055-0.028-0.013-0.0502-0.0232-0.0742-0.0332l-0.3144 0.791c-0.076-0.034-0.1535-0.06952-0.2285-0.1035 0.586-1.472 2.052-5.15 2.215-5.559 0.023-0.058 0.0548-0.1055 0.0937-0.1445-0.013-0.012-0.0261-0.02511-0.0371-0.03711-0.041-0.047-0.0652-0.09295-0.0742-0.127-8e-3 -0.035 5e-3 -0.05078 4e-3 -0.05078zm3.66 1.045s0.1333 0.04672 0.3613 0.1367c0.114 0.047 0.2512 0.1028 0.4062 0.1758s0.3289 0.1592 0.5059 0.2812c0.087 0.061 0.1768 0.1298 0.2598 0.2148 0.082 0.084 0.1613 0.1892 0.1953 0.3242 0.015 0.066 0.017 0.137 2e-3 0.207-0.015 0.076-0.0415 0.1275-0.0625 0.1875-0.046 0.118-0.0917 0.2403-0.1387 0.3633-0.192 0.49-0.3976 1.013-0.6016 1.535-0.211 0.521-0.4211 1.041-0.6191 1.529s-0.3946 0.9382-0.5566 1.326c-0.163 0.39-0.3082 0.7105-0.4062 0.9355-0.1 0.225-0.1582 0.3535-0.1582 0.3535s0.0807 0.02231 0.2207 0.07031c0.138 0.05 0.3393 0.1178 0.5703 0.2188 0.231 0.1 0.5003 0.218 0.7773 0.377 0.137 0.08 0.2801 0.1655 0.4141 0.2695 0.133 0.105 0.2713 0.2156 0.3613 0.3926 0.024 0.044 0.037 0.0983 0.041 0.1543 1e-5 0.028-3e-3 0.07389-0.01 0.08789-4e-3 0.013-4e-3 0.01306-0.0137 0.03906l-0.0117 0.0293c-0.031 0.077-0.0618 0.1545-0.0937 0.2305-0.063 0.154-0.1256 0.3042-0.1856 0.4492-0.122 0.291-0.2447 0.56-0.3457 0.793-0.1 0.231-0.192 0.4187-0.252 0.5527-0.065 0.133-0.1016 0.209-0.1016 0.209s0.0253-0.0797 0.0703-0.2207c0.048-0.139 0.1093-0.3392 0.1953-0.5762 0.087-0.238 0.1819-0.5175 0.2949-0.8125 0.055-0.147 0.1148-0.3001 0.1738-0.4551 0.03-0.076 0.0588-0.1535 0.0898-0.2305l0.0117-0.03125c-2e-3 8e-3 5e-3 -0.01449 6e-3 -0.02148 8e-3 -0.025-9e-5 -0.02316 4e-3 -0.03516-4e-3 -0.028-8e-3 -0.05689-0.0254-0.08789-0.06-0.125-0.1866-0.2389-0.3106-0.3379-0.125-0.098-0.2586-0.1875-0.3906-0.2695-0.263-0.163-0.5172-0.3069-0.7402-0.4199-0.225-0.114-0.41-0.2104-0.543-0.2734-0.132-0.065-0.207-0.1016-0.207-0.1016s0.0479-0.1332 0.1289-0.3652c0.084-0.231 0.1986-0.564 0.3476-0.959 0.149-0.393 0.3158-0.8547 0.5078-1.346 0.192-0.49 0.3956-1.013 0.5996-1.537 0.211-0.52 0.424-1.039 0.623-1.527 0.049-0.122 0.0985-0.2414 0.1465-0.3594 0.056-0.122 0.0904-0.2124 0.0664-0.3184-0.047-0.208-0.2297-0.3643-0.3887-0.4863-0.335-0.243-0.6511-0.3979-0.8691-0.5059-0.221-0.105-0.3496-0.166-0.3496-0.166zm-8.377 4.883-0.1367 0.3438c0.071 0.036 0.1793 0.08916 0.3223 0.1602 0.023 0.011 0.0492 0.02511 0.0742 0.03711l0.1973-0.4941c0.422 0.075 0.9248 0.2257 1.383 0.3887 0.264 0.119 0.529 0.2356 0.793 0.3516l-0.2949 0.7422c0.171 0.078 0.3444 0.1563 0.5234 0.2383 0.183 0.082 0.3686 0.165 0.5586 0.248l0.3066-0.7656c0.149 0.062 0.2963 0.1226 0.4453 0.1836l-0.3086 0.7773c0.27 0.118 0.5414 0.2346 0.8144 0.3516 0.623 0.262 1.249 0.517 1.838 0.752 0.215 0.081 0.421 0.1622 0.623 0.2402-0.061-0.02-0.1196-0.03859-0.1816-0.05859-0.572-0.192-1.18-0.4041-1.785-0.6211-0.604-0.221-1.205-0.4461-1.768-0.6641-0.28-0.112-0.5545-0.2173-0.8105-0.3223s-0.4977-0.2019-0.7207-0.2949c-0.447-0.185-0.8191-0.344-1.078-0.457-0.26-0.113-0.4082-0.1777-0.4082-0.1777 1e-5 0 0.1455 0.07312 0.3965 0.2031 0.252 0.13 0.6109 0.3143 1.045 0.5273 0.119 0.06 0.243 0.1206 0.373 0.1836l-0.7441 1.865c0.171 0.078 0.3444 0.1582 0.5234 0.2402 0.182 0.082 0.3686 0.165 0.5586 0.248l0.7344-1.842c0.014 8e-3 0.0289 0.01544 0.0449 0.02344 0.129 0.06 0.2606 0.1206 0.3926 0.1816l-0.7285 1.832c0.271 0.117 0.5424 0.2346 0.8164 0.3516 0.623 0.26 1.248 0.516 1.838 0.75 0.214 0.082 0.4191 0.1642 0.6211 0.2422-0.061-0.02-0.1206-0.03959-0.1816-0.05859-0.572-0.192-1.178-0.4041-1.783-0.6211-0.605-0.22-1.208-0.448-1.77-0.666-0.28-0.113-0.5526-0.2163-0.8086-0.3223-0.257-0.104-0.5007-0.2009-0.7227-0.2949-0.447-0.185-0.8191-0.344-1.078-0.457-0.26-0.113-0.4082-0.1758-0.4082-0.1758s0.1445 0.07413 0.3965 0.2031c0.251 0.13 0.6099 0.3114 1.045 0.5254 0.118 0.059 0.244 0.1206 0.373 0.1836l-0.1797 0.4492c-0.631-0.268-1.257-0.5413-1.881-0.8203 1e-3 -2e-3 9.6e-4 -0.0038 2e-3 -0.0078 0 0-0.092-0.04781-0.209-0.1328l0.207-0.5195c-0.034-0.014-0.0666-0.02897-0.0976-0.04297-0.129-0.06-0.2317-0.1086-0.3027-0.1406l-0.1465 0.3652c-0.141-0.198-0.2215-0.452-0.1035-0.748l0.9141-2.299c0.054-0.135 0.2306-0.1875 0.4766-0.1855zm4.855 0.207c0.018 9e-3 0.0367 0.01834 0.0547 0.02734 0.08 0.038 0.1641 0.07623 0.2461 0.1152l-0.2578 0.6426c-0.102-0.04-0.2046-0.08009-0.3066-0.1211zm-6.701 3.418c0.118 0.171 0.2656 0.3212 0.4316 0.4492 0.083 0.342 0.3573 0.6899 0.9473 0.9219l0.709 0.2793-1.732 4.35-1.412 0.8281c-0.145-0.047-0.3135-0.09305-0.4785-0.123-0.644-0.113-0.9527 0.1231-1.096 0.3281-0.06-4e-3 -0.1159-9.4e-5 -0.1719 0.0039zm4.238 0.9707c0.015 7e-3 0.0309 0.01448 0.0469 0.02148 0.129 0.061 0.2596 0.1206 0.3926 0.1816l-0.1465 0.3691c-0.149-0.061-0.2993-0.1206-0.4473-0.1816zm-1.625 1.191c0.046 0.022 0.0935 0.04427 0.1465 0.07227l-1.713 4.297c-0.069-0.028-0.1094-0.04492-0.1094-0.04492s0.4902 0.2437 1.158 0.5547l-1.584 1.162c-0.067-0.027-0.1342-0.05603-0.1992-0.08203-0.731-0.304-1.215-0.5176-1.215-0.5176s0.4725 0.24 1.188 0.582c0.715 0.343 1.675 0.7842 2.65 1.199 0.867 0.37 1.74 0.7203 2.447 0.9883-0.749-0.212-1.655-0.4907-2.551-0.8027-0.266-0.093-0.533-0.1842-0.793-0.2832-0.261-0.094-0.5167-0.1911-0.7617-0.2891-0.247-0.095-0.486-0.1902-0.709-0.2852-0.223-0.094-0.4359-0.1805-0.6289-0.2695-0.194-0.087-0.3704-0.1663-0.5274-0.2363-0.155-0.075-0.2903-0.1394-0.4023-0.1934-0.223-0.107-0.3496-0.1699-0.3496-0.1699s0.1209 0.07131 0.3359 0.1953c0.108 0.062 0.2377 0.1376 0.3867 0.2246 0.152 0.082 0.3228 0.1744 0.5098 0.2754 0.186 0.103 0.3943 0.2064 0.6113 0.3164 0.216 0.112 0.4456 0.2248 0.6856 0.3398 0.239 0.117 0.4891 0.2327 0.7441 0.3477 0.254 0.118 0.5144 0.2317 0.7754 0.3457 0.082 0.035 0.1621 0.06852 0.2441 0.1035-0.095-0.035-0.1912-0.06852-0.2852-0.1035-1.227-0.45-2.436-0.9487-3.332-1.348-0.449-0.198-0.8211-0.3692-1.08-0.4902-0.259-0.123-0.4062-0.1934-0.4062-0.1934s0.1445 0.07694 0.3965 0.2109c0.253 0.134 0.6147 0.3249 1.055 0.5449 0.161 0.081 0.3356 0.1659 0.5156 0.2539l-1.508 3.787c0.172 0.085 0.3483 0.1727 0.5293 0.2617 0.177 0.085 0.357 0.1689 0.541 0.2539l1.51-3.791c0.144 0.067 0.2914 0.1332 0.4394 0.2012l-1.51 3.791c0.268 0.121 0.5414 0.2394 0.8164 0.3574 0.618 0.261 1.243 0.5105 1.834 0.7305 0.214 0.077 0.42 0.1526 0.623 0.2246-0.061-0.018-0.1206-0.03669-0.1836-0.05469-0.572-0.175-1.18-0.3749-1.783-0.5879-0.603-0.217-1.2-0.4488-1.756-0.6758-0.277-0.116-0.5468-0.2239-0.7988-0.3359-0.253-0.111-0.491-0.2144-0.709-0.3164-0.439-0.2-0.7997-0.375-1.053-0.5-0.252-0.124-0.3945-0.1973-0.3945-0.1973s0.1388 0.08066 0.3828 0.2227c0.242 0.141 0.5896 0.3404 1.016 0.5684 0.113 0.063 0.2334 0.1274 0.3574 0.1934l-1.488 3.736c0.172 0.085 0.3473 0.1727 0.5293 0.2617 0.176 0.085 0.357 0.1689 0.541 0.2539l1.479-3.713c0.016 7e-3 0.0328 0.01644 0.0488 0.02344 0.128 0.063 0.2577 0.1255 0.3887 0.1875l-1.477 3.703c0.269 0.121 0.5424 0.2414 0.8164 0.3594 0.618 0.261 1.244 0.5085 1.834 0.7285 0.215 0.078 0.42 0.1546 0.623 0.2266-0.061-0.018-0.1186-0.03569-0.1816-0.05469-0.572-0.175-1.182-0.3768-1.785-0.5898-0.603-0.217-1.2-0.4468-1.756-0.6738-0.277-0.116-0.5468-0.2259-0.7988-0.3379-0.253-0.11-0.491-0.2144-0.709-0.3164-0.438-0.199-0.7988-0.373-1.051-0.498s-0.3945-0.1973-0.3945-0.1973 0.1379 0.08066 0.3808 0.2227c0.243 0.141 0.5916 0.3404 1.018 0.5684 0.113 0.063 0.2334 0.1254 0.3574 0.1914l-1.484 3.725c0.066 0.029 0.1303 0.05789 0.1973 0.08789 0.283 0.124 0.5806 0.25 0.8926 0.377l1.455-3.648c0.016 8e-3 0.0309 0.01544 0.0469 0.02344 0.128 0.062 0.2577 0.1235 0.3887 0.1855l-1.441 3.621c0.653 0.259 1.355 0.5202 2.088 0.7852 0.634 0.225 1.294 0.448 1.975 0.627 0.34 0.09 0.6842 0.1698 1.031 0.2188 0.173 0.023 0.3496 0.0353 0.5176 0.0293 0.166-5e-3 0.3388-0.03914 0.4238-0.1191 7e-3 -0.012 0.0193-0.02025 0.0273-0.03125 6e-3 -0.012 0.01-0.02316 0.0176-0.03516l0.0508-0.125 0.1016-0.252c0.068-0.167 0.1361-0.336 0.2031-0.502 0.135-0.334 0.2674-0.6661 0.4004-0.9961 0.265-0.66 0.5272-1.31 0.7812-1.938 0.505-1.257 0.9952-2.423 1.406-3.426 0.412-1.004 0.7707-1.834 1.014-2.418 0.249-0.581 0.3906-0.9121 0.3906-0.9121s-0.1257 0.3376-0.3457 0.9316c-0.224 0.59-0.5348 1.439-0.9258 2.451-0.392 1.01-0.836 2.193-1.334 3.453-0.248 0.63-0.5046 1.283-0.7656 1.945-0.131 0.331-0.2615 0.663-0.3945 0.998-0.065 0.167-0.1313 0.3359-0.1973 0.5039l-0.0977 0.252-0.0508 0.127c-0.026 0.058-0.0604 0.1113-0.1074 0.1543-0.189 0.165-0.4018 0.1775-0.5898 0.1875-0.192 6e-3 -0.3766-0.01306-0.5586-0.03906-0.364-0.053-0.7156-0.1355-1.061-0.2285-0.69-0.188-1.352-0.4174-1.988-0.6504-0.637-0.23-1.242-0.4778-1.814-0.7168-0.572-0.238-1.108-0.4751-1.598-0.7051-0.49-0.228-0.9324-0.4558-1.314-0.6758s-0.7042-0.4308-0.9492-0.6328c-0.245-0.198-0.4118-0.3975-0.4648-0.5625-0.046-0.13-0.014-0.2132-2e-3 -0.2422 0-5e-3 2e-3 -0.0087 4e-3 -0.01367l4.229-10.62c0.159-0.397 0.3219-0.5844 0.6289-0.5684l-1.447 3.635c0.06 0.034 0.1824 0.1041 0.3574 0.2051 9e-3 5e-3 0.0193 0.01063 0.0293 0.01563l1.643-4.123c0.082-0.208 0.7056-0.03 1.1 0.125l1.887-1.104zm0.3145 0.166c0.234 0.13 0.5206 0.308 0.8496 0.543l-1.631 4.094c-0.381-0.146-0.7049-0.2733-0.9219-0.3613zm1.275 0.8613c0.075 0.058 0.1496 0.1205 0.2266 0.1855l-1.541 3.869c-0.089-0.033-0.1747-0.06566-0.2617-0.09766zm2.83 0.6074c-0.059 0.186-0.1235 0.3697-0.1875 0.5547-0.063 0.185-0.1293 0.3678-0.1973 0.5508-0.134 0.367-0.2672 0.7366-0.4082 1.1-0.278 0.722-0.5672 1.438-0.8672 2.152l0.2598 0.9766c0.044 0.166 0.083 0.335 0.125 0.502 0.043 0.168 0.085 0.3349 0.123 0.5039-0.059-0.163-0.1149-0.3272-0.1699-0.4902-0.055-0.164-0.1111-0.3272-0.1641-0.4922l-0.3164-0.9844-8e-3 -0.02148 0.01-0.02539c0.276-0.73 0.5634-1.458 0.8594-2.18 0.148-0.362 0.3039-0.7201 0.4609-1.078 0.076-0.18 0.1524-0.3591 0.2344-0.5371 0.082-0.177 0.1611-0.3552 0.2461-0.5312zm0.6367 0.05859 0.709 0.2793c0.589 0.232 1.027 0.1666 1.322-0.02539 0.208 0.02 0.422 0.0108 0.625-0.0332l-2.803 7.039c-0.039-0.042-0.079-0.08309-0.125-0.1211 0.036-0.247-0.0243-0.6313-0.5703-0.9883-0.142-0.091-0.2956-0.1713-0.4336-0.2363l-0.457-1.566zm-5.107 3.4c0.09 0.04 0.1804 0.08105 0.2734 0.123l-0.666 1.477c-0.235-0.089-0.4674-0.1767-0.6894-0.2637zm-10.46 12.57c0.08 0.097 0.1725 0.1893 0.2695 0.2773-0.163 0.304-0.3262 0.6081-0.4902 0.9121-0.114 0.216-0.2288 0.4315-0.3438 0.6465-0.061-0.116-0.0771-0.2232-0.0371-0.3242 0.224-0.561 0.4246-1.068 0.6016-1.512zm0.2969 0.3027c0.123 0.108 0.2547 0.2088 0.3887 0.3008-0.152 0.288-0.3031 0.5753-0.4551 0.8633-0.139 0.264-0.278 0.529-0.418 0.793-0.017-0.015-0.0318-0.02897-0.0488-0.04297 0.082-0.295 0.1621-0.5898 0.2441-0.8848 0.096-0.343 0.1931-0.6853 0.2891-1.029zm0.4512 0.3438c0.13 0.087 0.2579 0.1673 0.3789 0.2383-0.146 0.284-0.2924 0.5666-0.4394 0.8516-0.146 0.279-0.2925 0.5579-0.4375 0.8379-0.015-9e-3 -0.029-0.01639-0.043-0.02539 0.088-0.312 0.1776-0.6255 0.2656-0.9375 0.093-0.321 0.1844-0.6438 0.2754-0.9648zm0.4707 0.2891c0.108 0.062 0.206 0.1161 0.291 0.1621 0.024 0.013 0.0502 0.02606 0.0742 0.03906-0.147 0.287-0.2915 0.5724-0.4375 0.8594-0.146 0.284-0.2934 0.5705-0.4394 0.8555-0.013-8e-3 -0.0261-0.01644-0.0391-0.02344 0.091-0.315 0.1844-0.6293 0.2754-0.9453s0.1834-0.6323 0.2754-0.9473zm0.4785 0.2617c0.111 0.058 0.2276 0.1187 0.3496 0.1797-0.146 0.291-0.2905 0.5811-0.4375 0.8711-0.144 0.285-0.2886 0.5715-0.4316 0.8555-0.012-6e-3 -0.0251-0.01448-0.0371-0.02148 0.092-0.312 0.1834-0.6245 0.2754-0.9375 0.094-0.315 0.1872-0.6313 0.2812-0.9473zm0.4863 0.248c0.107 0.052 0.218 0.1062 0.332 0.1602-0.146 0.296-0.2924 0.5917-0.4394 0.8887-0.141 0.282-0.2819 0.5637-0.4219 0.8457-0.013-6e-3 -0.0241-0.01258-0.0371-0.01758 0.092-0.308 0.1853-0.6158 0.2773-0.9238 0.097-0.318 0.1921-0.6351 0.2891-0.9531zm0.4922 0.2344c0.102 0.048 0.2064 0.09358 0.3144 0.1426-0.147 0.301-0.2944 0.6042-0.4414 0.9062l-0.4102 0.8379c-0.013-5e-3 -0.0251-0.01158-0.0371-0.01758 0.091-0.301 0.1824-0.6023 0.2754-0.9043 0.1-0.322 0.1988-0.6428 0.2988-0.9648zm0.4961 0.2227c0.098 0.043 0.1949 0.08491 0.2969 0.1289-0.148 0.308-0.2954 0.6158-0.4434 0.9238-0.133 0.276-0.2683 0.5521-0.4023 0.8281-0.012-6e-3 -0.0241-0.0096-0.0371-0.01562 0.092-0.296 0.1853-0.5907 0.2773-0.8867 0.103-0.326 0.2066-0.6525 0.3086-0.9785zm0.5 0.2168c0.09 0.038 0.1824 0.07819 0.2754 0.1172-0.146 0.313-0.2954 0.6265-0.4434 0.9395-0.13 0.272-0.2596 0.5434-0.3906 0.8164-0.012-5e-3 -0.0242-0.0096-0.0352-0.01563 0.092-0.289 0.1834-0.5791 0.2754-0.8691 0.106-0.33 0.2114-0.6593 0.3184-0.9883zm0.5039 0.2109c0.084 0.034 0.1669 0.06852 0.2539 0.1035-0.147 0.317-0.2944 0.6332-0.4414 0.9512-0.128 0.27-0.2548 0.5405-0.3828 0.8105-0.012-4e-3 -0.0212-0.0077-0.0332-0.01172 0.092-0.287 0.1854-0.5734 0.2774-0.8594 0.108-0.331 0.2162-0.6631 0.3262-0.9941zm-5.146 0.1074c0.086 0.103 0.1831 0.199 0.2871 0.291l-0.9141 2.295c0.058 0.037 0.1757 0.1127 0.3477 0.2207 9e-3 5e-3 0.0212 0.01353 0.0312 0.01953l0.8965-2.25c0.314 0.223 0.6383 0.3995 0.8613 0.5215 0.339 0.184 0.7299 0.379 1.17 0.582l-0.918 2.303c0.169 0.088 0.3415 0.1756 0.5195 0.2676 0.176 0.089 0.3589 0.1766 0.5449 0.2656l0.9394-2.357c0.144 0.061 0.2923 0.1225 0.4453 0.1855l-0.9473 2.379c0.268 0.123 0.5385 0.2443 0.8125 0.3613 0.621 0.263 1.251 0.5077 1.848 0.7207 0.217 0.074 0.4259 0.1468 0.6309 0.2148-0.061-0.017-0.1215-0.03278-0.1855-0.05078-0.578-0.165-1.192-0.3593-1.799-0.5723-0.607-0.216-1.208-0.4505-1.764-0.6855-0.278-0.12-0.5449-0.2355-0.7949-0.3535-0.252-0.115-0.49-0.227-0.707-0.334-0.434-0.212-0.7911-0.3992-1.039-0.5332-0.248-0.135-0.3887-0.2109-0.3887-0.2109s0.135 0.08437 0.373 0.2344c0.239 0.152 0.5839 0.3645 1.004 0.6055 0.117 0.068 0.2431 0.137 0.3711 0.209l-1.473 3.695c0.068-0.014 0.138-0.02611 0.207-0.03711 0.36-0.05 0.7289-0.05191 1.086-0.0039l1.232-3.096c0.012 6e-3 0.0241 0.01253 0.0371 0.01953 0.13 0.064 0.2644 0.1313 0.3984 0.1953l-1.188 2.979c0.06 0.016 0.1197 0.03178 0.1777 0.05078 0.551 0.17 1.061 0.4818 1.445 0.8398 0.414 0.379 0.7103 0.8273 0.9043 1.281 0.198 0.455 0.2839 0.9198 0.2969 1.344 0.014 0.424-0.0435 0.8118-0.1465 1.135-0.021 0.082-0.0452 0.1594-0.0762 0.2324-0.029 0.073-0.057 0.1429-0.084 0.2109-0.064 0.131-0.1296 0.2485-0.1856 0.3535-0.13 0.202-0.2402 0.3514-0.3262 0.4434-0.083 0.095-0.127 0.1445-0.127 0.1445l0.0859-0.1719c0.027-0.057 0.0696-0.1201 0.1016-0.2051 0.032-0.084 0.0703-0.1782 0.1133-0.2832 0.032-0.11 0.0705-0.2303 0.1035-0.3613 0.021-0.135 0.0681-0.2727 0.0781-0.4277 0.043-0.307 0.0316-0.6584-0.0234-1.023-0.061-0.367-0.1858-0.7493-0.3828-1.113-0.198-0.365-0.4795-0.7045-0.8125-0.9785l-0.1484-0.1152-0.0684-0.05078-6e-3 -0.0039-4e-3 -2e-3 -2e-3 -2e-3 -0.0156-0.0078-0.0351-0.02344c-0.097-0.056-0.186-0.1279-0.291-0.1719-0.102-0.049-0.2015-0.1076-0.3105-0.1426-0.107-0.042-0.2132-0.08728-0.3262-0.1133-0.443-0.125-0.9198-0.1598-1.383-0.0918-0.463 0.069-0.9088 0.2393-1.299 0.4863-0.101 0.058-0.1912 0.1312-0.2812 0.2012-0.098 0.068-0.167 0.1428-0.248 0.2148l-0.0606 0.05469-0.0625 0.07031-0.125 0.1445-0.0469 0.05273-6e-3 0.0059-0.0449 0.06641-0.0996 0.1348c-0.25 0.37-0.4257 0.7746-0.5137 1.182-0.087 0.407-0.0997 0.8117-0.0547 1.18 0.048 0.367 0.1357 0.7043 0.2637 0.9863 0.052 0.147 0.1364 0.2656 0.1934 0.3906 0.069 0.116 0.1392 0.2185 0.2012 0.3145 0.069 0.086 0.1335 0.1653 0.1875 0.2363 0.055 0.072 0.1133 0.1229 0.1543 0.1699 0.085 0.091 0.1309 0.1406 0.1309 0.1406 0.118 0.088 0.2393 0.1663 0.3633 0.2383l-1.42 3.566c0.264 0.129 0.5327 0.2531 0.8047 0.3711 0.629 0.27 1.273 0.5072 1.885 0.7012 0.221 0.067 0.4374 0.1305 0.6484 0.1895-0.064-0.014-0.1264-0.02602-0.1914-0.04102-0.592-0.143-1.221-0.3242-1.84-0.5352-0.617-0.216-1.223-0.4598-1.781-0.7148-0.277-0.13-0.5459-0.2567-0.7949-0.3867-0.25-0.13-0.4843-0.2569-0.6973-0.3789-0.426-0.241-0.7718-0.4602-1.01-0.6172-0.239-0.156-0.375-0.248-0.375-0.248s0.1294 0.09949 0.3574 0.2715c0.229 0.172 0.5587 0.4136 0.9727 0.6836 0.125 0.084 0.2613 0.1698 0.4023 0.2578l-12.05 30.26c0.148 0.097 0.299 0.195 0.457 0.293 0.183 0.112 0.3743 0.2201 0.5703 0.3281l12.06-30.28c4e-3 2e-3 6e-3 0.0039 0.01 0.0059 0.136 0.074 0.2769 0.1468 0.4199 0.2188l-12.06 30.28c0.262 0.133 0.5278 0.2619 0.8008 0.3809 0.636 0.274 1.293 0.5037 1.92 0.6777 0.227 0.061 0.449 0.1151 0.666 0.1641-0.065-0.011-0.1293-0.0212-0.1953-0.0332-0.608-0.117-1.251-0.2841-1.881-0.4941-0.629-0.213-1.244-0.4701-1.803-0.7461-0.279-0.141-0.545-0.2798-0.793-0.4238s-0.4775-0.2839-0.6855-0.4219c-0.42-0.272-0.7554-0.5222-0.9844-0.7012-0.229-0.18-0.3564-0.2862-0.3574-0.2852 1e-3 -1e-3 0.1228 0.1136 0.3398 0.3086 0.218 0.194 0.5345 0.4627 0.9395 0.7637 0.134 0.102 0.2825 0.2065 0.4355 0.3125l-0.4746 1.188c0.079 0.05 0.162 0.1004 0.248 0.1504 0.242 0.142 0.5098 0.2829 0.8008 0.4219l0.4453-1.115c0.137 0.08 0.2808 0.1593 0.4258 0.2363l-0.4316 1.08c0.443 0.194 0.93 0.3816 1.457 0.5586 0.54 0.179 1.126 0.3424 1.754 0.4414 0.626 0.093 1.307 0.134 1.973-0.041 0.333-0.084 0.6526-0.2372 0.9336-0.4512 0.276-0.22 0.5126-0.5001 0.6816-0.8281 0.168-0.322 0.2915-0.6966 0.4395-1.061 0.143-0.365 0.2875-0.7373 0.4355-1.113 0.59-1.506 1.213-3.095 1.857-4.738 1.299-3.281 2.684-6.782 4.07-10.28 1.399-3.495 2.799-6.989 4.111-10.27 0.654-1.639 1.294-3.221 1.904-4.719 0.608-1.499 1.184-2.916 1.715-4.225 1.057-2.617 1.961-4.789 2.582-6.314 0.63-1.523 0.9902-2.395 0.9902-2.395s-0.3377 0.88-0.9277 2.418c-0.597 1.535-1.434 3.733-2.465 6.361-0.514 1.316-1.072 2.74-1.662 4.246-0.587 1.507-1.209 3.096-1.861 4.736-1.3 3.281-2.687 6.779-4.074 10.28-1.401 3.496-2.801 6.992-4.113 10.27-0.662 1.636-1.303 3.218-1.91 4.717-0.152 0.375-0.3012 0.7444-0.4492 1.107-0.154 0.363-0.2778 0.7252-0.4648 1.076-0.185 0.347-0.4441 0.6508-0.7441 0.8848-0.307 0.228-0.6519 0.3866-1.004 0.4726-0.708 0.178-1.407 0.1197-2.043 0.0137-0.638-0.112-1.225-0.2895-1.766-0.4785-1.081-0.387-1.989-0.8122-2.693-1.24-0.702-0.428-1.192-0.8642-1.473-1.201-0.073-0.083-0.1327-0.1585-0.1797-0.2285-0.051-0.067-0.0911-0.1248-0.1191-0.1738-0.018-0.029-0.0329-0.0523-0.0449-0.0723-0.012-0.019-0.0251-0.0396-0.0371-0.0586-6e-3 -0.01-0.01-0.0156-0.01-0.0156s4e-3 3e-3 8e-3 0.01c-0.045-0.077-0.0871-0.1563-0.123-0.2363l0.373-0.9355c-0.05-0.044-0.0996-0.0841-0.1406-0.1211-0.085-0.077-0.155-0.1404-0.209-0.1914l-0.2324 0.582c-0.075-0.458-0.0216-0.956 0.1934-1.498 0.799-2.004 13.55-34 18.36-46.08zm5.652 0.09766c0.078 0.031 0.1534 0.0608 0.2324 0.0918l-0.4375 0.957c-0.126 0.27-0.252 0.5415-0.377 0.8125-0.011-5e-3 -0.0213-0.0097-0.0312-0.01367 0.093-0.284 0.1863-0.5666 0.2793-0.8496 0.112-0.333 0.222-0.665 0.334-0.998zm0.5078 0.1992c0.07 0.027 0.1419 0.05603 0.2109 0.08203-0.145 0.32-0.2886 0.6409-0.4336 0.9609-0.124 0.271-0.2481 0.5425-0.3711 0.8125-0.01-4e-3 -0.0193-0.0087-0.0293-0.01172 0.095-0.283 0.1892-0.5637 0.2832-0.8457 0.114-0.333 0.2268-0.666 0.3398-0.998zm0.5098 0.1973c0.062 0.023 0.1274 0.04831 0.1894 0.07031-0.143 0.32-0.2857 0.639-0.4277 0.959-0.123 0.272-0.2461 0.5464-0.3691 0.8184-8e-3 -3e-3 -0.0174-0.0078-0.0254-0.0098 0.096-0.283 0.1931-0.5627 0.2891-0.8457 0.115-0.33 0.2288-0.6612 0.3438-0.9922zm0.5117 0.1895c0.055 0.02 0.113 0.04055 0.166 0.06055-0.14 0.318-0.2799 0.6371-0.4199 0.9551-0.122 0.275-0.2432 0.5502-0.3652 0.8242-8e-3 -2e-3 -0.0145-0.0029-0.0215-0.0059 0.098-0.283 0.1959-0.5666 0.2949-0.8496 0.116-0.328 0.2307-0.6574 0.3457-0.9844zm0.5156 0.1836c0.047 0.017 0.0956 0.03478 0.1426 0.05078-0.137 0.317-0.2751 0.6313-0.4121 0.9473-0.121 0.279-0.2422 0.5589-0.3652 0.8379-5e-3 -2e-3 -0.0106-0.0049-0.0176-0.0059 0.101-0.286 0.2017-0.5724 0.3027-0.8574 0.117-0.324 0.2336-0.6477 0.3496-0.9727zm0.5156 0.1758c0.041 0.013 0.0821 0.02802 0.1211 0.04102-0.134 0.313-0.2674 0.6255-0.4004 0.9395-0.122 0.283-0.2442 0.5667-0.3652 0.8477-5e-3 0-0.0106-0.0019-0.0156-0.0039 0.104-0.288 0.2076-0.5772 0.3106-0.8652 0.117-0.32 0.2336-0.639 0.3496-0.959zm0.5215 0.166c0.033 0.01 0.0657 0.0193 0.0977 0.0293-0.131 0.311-0.2616 0.6226-0.3926 0.9336-0.122 0.286-0.2423 0.5714-0.3633 0.8574l-0.0117-2e-3c0.107-0.291 0.2124-0.5811 0.3184-0.8711 0.117-0.316 0.2336-0.6313 0.3516-0.9473zm0.5254 0.1504c0.025 6e-3 0.0492 0.01448 0.0742 0.02148-0.128 0.31-0.2558 0.6187-0.3848 0.9297-0.12 0.287-0.2423 0.5753-0.3613 0.8633-3e-3 -1e-3 -5e-3 -9.54e-4 -8e-3 -2e-3 0.108-0.29 0.2162-0.583 0.3242-0.873 0.119-0.313 0.2365-0.6255 0.3555-0.9395zm0.5293 0.1367c0.018 5e-3 0.0337 0.0077 0.0527 0.01172-0.128 0.311-0.2539 0.6226-0.3809 0.9336-0.117 0.285-0.2355 0.5705-0.3535 0.8555-1e-3 0-5e-3 1e-3 -6e-3 0 0.109-0.288 0.2191-0.5753 0.3281-0.8633 0.12-0.312 0.2394-0.6245 0.3594-0.9375zm0.5391 0.1074c0.01 2e-3 0.0222 0.0019 0.0332 0.0039-0.128 0.317-0.2577 0.6371-0.3867 0.9551-0.112 0.276-0.222 0.5502-0.334 0.8262h-4e-3c0.106-0.277 0.2143-0.5531 0.3203-0.8301 0.124-0.318 0.2471-0.6371 0.3711-0.9551zm0.5586 0.05469h0.0117l-0.6992 1.752c0.097-0.246 0.1921-0.4913 0.2891-0.7363 0.133-0.339 0.2644-0.6766 0.3984-1.016zm-9.83 7.711c0.266 0.011 0.5276 0.05567 0.7656 0.1387 0.062 0.017 0.1198 0.04045 0.1758 0.06445 0.058 0.025 0.115 0.04622 0.168 0.07422 0.106 0.061 0.2127 0.1116 0.3047 0.1816 0.193 0.124 0.3465 0.2817 0.4785 0.4277 0.062 0.077 0.1189 0.1536 0.1699 0.2266 0.045 0.078 0.085 0.1517 0.125 0.2207 0.032 0.073 0.0629 0.1391 0.0879 0.2031 0.025 0.063 0.0396 0.1247 0.0566 0.1777 0.037 0.105 0.0388 0.1969 0.0508 0.2539 9e-3 0.058 0.0137 0.08984 0.0137 0.08984s-0.0131-0.02903-0.0391-0.08203-0.0592-0.1317-0.1172-0.2227c-0.028-0.046-0.0548-0.09934-0.0918-0.1523-0.039-0.051-0.0771-0.107-0.1191-0.166-0.049-0.055-0.0993-0.1138-0.1543-0.1758-0.06-0.055-0.1186-0.1148-0.1836-0.1738-0.139-0.109-0.2908-0.2235-0.4688-0.3125-0.175-0.095-0.3721-0.1638-0.5801-0.2188-0.206-0.06-0.4303-0.06912-0.6523-0.07813l-0.168 0.0039c-0.057 1e-3 -0.1091 0.01258-0.1641 0.01758-0.095 4e-3 -0.2448 0.0455-0.3398 0.0625-0.22 0.061-0.4368 0.136-0.6328 0.248-0.192 0.113-0.3841 0.2299-0.5371 0.3809-0.156 0.147-0.3002 0.3037-0.4082 0.4707-0.114 0.165-0.1956 0.337-0.2656 0.5-0.03 0.083-0.0521 0.1642-0.0781 0.2422-0.019 0.079-0.0377 0.1556-0.0547 0.2266-0.01 0.072-0.0163 0.1411-0.0273 0.2051-7e-3 0.064-7e-3 0.1218-0.01 0.1758-8e-3 0.106 3e-3 0.194 4e-3 0.252 3e-3 0.059 2e-3 0.0918 2e-3 0.0918s-9e-3 -0.02994-0.0293-0.08594c-0.016-0.057-0.0572-0.1351-0.0742-0.2461-0.01-0.055-0.0262-0.1175-0.0352-0.1855-8e-3 -0.067-0.0116-0.1388-0.0176-0.2188 2e-3 -0.08 5e-3 -0.1669 8e-3 -0.2559 0.01-0.089 0.024-0.1823 0.043-0.2793 0.047-0.193 0.1087-0.4035 0.2207-0.6055 0.048-0.106 0.1157-0.2017 0.1797-0.3047 0.073-0.097 0.1483-0.1991 0.2383-0.2871 0.17-0.188 0.3784-0.3532 0.6074-0.4902 0.231-0.137 0.4861-0.2345 0.7461-0.3105 0.149-0.027 0.2405-0.05441 0.3945-0.06641 0.142-0.019 0.2742-0.01858 0.4082-0.01758zm2.816 2.166s4e-3 0.03547 0.0156 0.1055c5e-3 0.071 0.0362 0.1726 0.0351 0.3066 3e-3 0.067 5e-3 0.1407 8e-3 0.2227-5e-3 0.08-0.01 0.1668-0.0137 0.2598-0.018 0.186-0.0521 0.3952-0.1191 0.6172-0.031 0.111-0.08 0.2218-0.123 0.3398-0.057 0.112-0.1038 0.2327-0.1758 0.3457-0.129 0.234-0.3077 0.4561-0.5137 0.6641-0.213 0.202-0.4604 0.3824-0.7344 0.5254-0.279 0.135-0.5797 0.2282-0.8887 0.2812-0.304 0.039-0.6316 0.03633-0.9336-0.01367-0.304-0.057-0.5896-0.16-0.8496-0.291-0.257-0.141-0.4917-0.3003-0.6797-0.4883-0.101-0.087-0.1796-0.1912-0.2656-0.2812-0.073-0.101-0.1519-0.193-0.2129-0.291-0.126-0.193-0.2182-0.3836-0.2852-0.5566-0.031-0.088-0.0599-0.1701-0.0859-0.2461-0.02-0.078-0.0387-0.1508-0.0547-0.2148-0.038-0.128-0.0378-0.2347-0.0508-0.3047-0.01-0.07-0.0156-0.1055-0.0156-0.1055s0.0103 0.03451 0.0273 0.1035c0.02 0.067 0.0341 0.1709 0.0801 0.2949 0.021 0.062 0.0443 0.1301 0.0703 0.2051 0.032 0.072 0.0665 0.1504 0.1035 0.2344 0.081 0.162 0.1865 0.3375 0.3145 0.5195 0.064 0.09 0.1428 0.1746 0.2168 0.2676 0.087 0.082 0.1656 0.1779 0.2656 0.2559 0.188 0.169 0.4182 0.3046 0.6602 0.4336 0.247 0.118 0.5178 0.2019 0.7988 0.2539 0.285 0.042 0.5682 0.04581 0.8652 0.0078 0.287-0.047 0.5662-0.1329 0.8262-0.2559 0.255-0.131 0.4913-0.2906 0.6953-0.4746 0.196-0.193 0.3787-0.3914 0.5117-0.6074 0.074-0.104 0.1236-0.2173 0.1836-0.3203 0.046-0.11 0.0978-0.2133 0.1328-0.3203 0.073-0.21 0.1242-0.4089 0.1562-0.5879 0.012-0.091 0.0232-0.1759 0.0332-0.2539 4e-3 -0.079 7e-3 -0.1518 0.01-0.2168 0.01-0.131-4e-3 -0.2366-4e-3 -0.3066-2e-3 -0.072-4e-3 -0.1074-4e-3 -0.1074z"
       id="path38" /><path
       d="m427.3 116.5c-4.265 7.078-11.62 12.52-18.6 9.256-3.901-1.906-5.535-6.988-5.626-11.34 7.804 0.271 15.43-2.541 19.51-10.07 2.723-5.354 2.632-12.25-1.996-15.97-5.172-4.356-16.97-2.087-23.87 8.621-8.439 13.43-8.167 35.12 8.984 35.66 10.34 0.273 17.79-3.085 24.86-16.15zm-23.87-7.351c0.998-5.081 2.632-9.165 4.538-12.07 3.266-5.172 7.259-6.896 9.074-5.535 2.269 1.815 0.635 19.06-13.7 18.6 0-0.272 0.09-0.635 0.09-0.998z"
       id="path40" /><path
       d="m429.9 125.4c0 1.996 0.726 3.72 2.087 5.172 1.452 1.361 3.176 2.087 5.172 2.087s3.721-0.726 5.263-2.087c1.361-1.452 2.087-3.176 2.087-5.172 0-1.997-0.726-3.721-2.087-5.263-1.542-1.362-3.267-2.088-5.263-2.088s-3.72 0.726-5.172 2.088c-1.361 1.542-2.087 3.266-2.087 5.263z"
       id="path42" /></g><g
     id="Cloud"
     fill="#515151"
     fill-rule="nonzero"><path
       d="m255.9 38.97c-0.083-0.105-0.153-0.213-0.224-0.32-0.179 0.059-0.366 0.11-0.566 0.14-1.12 0.174-2.475-0.141-3.612-0.966-0.178-0.129-0.349-0.271-0.514-0.422-0.362-0.329-0.692-0.705-0.97-1.123-0.409-0.607-0.711-1.298-0.895-2.02-0.177-0.724-0.237-1.484-0.145-2.223 0.043-0.369 0.124-0.733 0.238-1.082 0.057-0.173 0.122-0.343 0.194-0.508 0.073-0.165 0.152-0.325 0.238-0.479 0.476-0.859 1.13-1.518 1.807-2.002-0.083-0.112-0.165-0.231-0.244-0.357-0.079-0.125-0.156-0.257-0.23-0.394-0.104-0.196-0.2-0.408-0.289-0.627-0.038-0.092-0.077-0.181-0.111-0.276-0.148-0.401-0.261-0.847-0.34-1.316-0.181-1.083-0.15-2.312 0.257-3.546 0.146-0.44 0.335-0.871 0.564-1.286 0.229-0.416 0.498-0.815 0.801-1.193 0.604-0.755 1.343-1.416 2.159-1.949 0.04-0.026 0.08-0.051 0.12-0.077 0.096-0.059 0.194-0.112 0.292-0.168 0.087-0.051 0.173-0.104 0.261-0.152 0.126-0.069 0.255-0.131 0.382-0.194 0.084-0.041 0.167-0.086 0.253-0.125 0.143-0.066 0.289-0.125 0.435-0.184 0.073-0.029 0.143-0.062 0.216-0.089 0.218-0.083 0.438-0.158 0.66-0.224 1e-3 -1e-3 2e-3 -2e-3 5e-3 -2e-3 0.107-0.033 0.217-0.057 0.325-0.087 0.809-0.217 1.634-0.333 2.425-0.346 0.162-3e-3 0.321 1e-3 0.481 6e-3 5e-3 -0.016 0.01-0.031 0.016-0.048 0.047-0.12 0.099-0.24 0.155-0.36 0.166-0.359 0.371-0.712 0.609-1.051 0.26-0.358 0.565-0.69 0.9-0.994 0.085-0.077 0.169-0.153 0.258-0.226v-1e-3c0.157-0.119 0.32-0.23 0.485-0.335 0.021-0.013 0.039-0.029 0.06-0.042 0.022-0.014 0.045-0.025 0.066-0.038 0.094-0.057 0.188-0.111 0.283-0.162 0.045-0.025 0.088-0.05 0.132-0.073 0.14-0.071 0.282-0.139 0.424-0.2 0.128-0.052 0.258-0.1 0.387-0.143 0.387-0.132 0.778-0.228 1.164-0.283 0.182-0.026 0.363-0.041 0.542-0.051 0.193-0.012 0.383-0.017 0.569-0.011 0.119 3e-3 0.236 0.01 0.352 0.019 0.231 0.02 0.454 0.05 0.667 0.091 0.106 0.02 0.211 0.043 0.312 0.067 0.101 0.025 0.199 0.052 0.295 0.08 0.04-0.242 0.089-0.488 0.165-0.741 0.048-0.166 0.108-0.334 0.173-0.501 0.08-0.206 0.171-0.41 0.278-0.609 0.047-0.089 0.105-0.173 0.156-0.26 0.097-0.161 0.201-0.316 0.313-0.469 0.077-0.104 0.152-0.21 0.236-0.31 0.05-0.058 0.102-0.114 0.155-0.17 0.166-0.176 0.342-0.345 0.53-0.498 0.082-0.067 0.167-0.131 0.254-0.193 0.084-0.06 0.168-0.117 0.255-0.172 1e-3 0 2e-3 -1e-3 3e-3 -1e-3 0.121-0.075 0.243-0.142 0.368-0.204 0.03-0.016 0.061-0.031 0.092-0.045 0.125-0.06 0.252-0.117 0.381-0.164h1e-3c0.136-0.051 0.273-0.091 0.408-0.125 0.222-0.057 0.44-0.095 0.653-0.116 0.03-3e-3 0.062-7e-3 0.092-0.01 0.061-0.534 0.184-1.095 0.382-1.66 0.196-0.539 0.446-1.086 0.79-1.591 0.158-0.263 0.359-0.499 0.552-0.742 0.053-0.057 0.106-0.114 0.159-0.172 0.159-0.172 0.318-0.344 0.5-0.495 0.13-0.119 0.266-0.23 0.405-0.336 0.045-0.035 0.091-0.066 0.135-0.098 0.099-0.072 0.198-0.141 0.299-0.206 0.023-0.014 0.044-0.031 0.068-0.046 0.051-0.032 0.105-0.062 0.157-0.092 0.038-0.023 0.076-0.046 0.114-0.068 0.124-0.069 0.248-0.135 0.376-0.196 0 0 1e-3 -1e-3 2e-3 -1e-3 0.562-0.27 1.161-0.45 1.761-0.521 0.6-0.069 1.193-0.03 1.731 0.126 0.137 0.037 0.267 0.083 0.392 0.134 0.124 0.051 0.244 0.108 0.357 0.169 0.228 0.124 0.432 0.266 0.613 0.415 0.051 0.043 0.095 0.087 0.143 0.13 0.285-0.301 0.621-0.593 1.011-0.852v-1e-3c0.038-0.024 0.076-0.048 0.113-0.072 0.052-0.032 0.108-0.061 0.162-0.092 0.056-0.032 0.11-0.065 0.167-0.095 0.081-0.044 0.165-0.083 0.25-0.122 0.056-0.026 0.11-0.054 0.167-0.078 0.096-0.042 0.195-0.078 0.295-0.115 0.049-0.017 0.097-0.038 0.147-0.054 0.151-0.051 0.305-0.096 0.462-0.133l1e-3 -1e-3c0.064-0.015 0.129-0.024 0.193-0.038 0.6-0.123 1.235-0.16 1.874-0.082 0.176 0.023 0.353 0.053 0.528 0.093 0.176 0.039 0.35 0.086 0.523 0.141 0.063 0.021 0.124 0.049 0.186 0.074 0.232 0.087 0.459 0.188 0.68 0.305 0.044 0.023 0.091 0.043 0.133 0.067 0.05 0.029 0.094 0.064 0.142 0.095 0.262 0.168 0.513 0.352 0.74 0.558 0.06 0.056 0.114 0.117 0.172 0.175 0.136 0.139 0.264 0.284 0.383 0.435 0.053 0.066 0.11 0.129 0.159 0.198 0.198 0.279 0.367 0.574 0.506 0.879 0.077 0.172 0.148 0.345 0.206 0.522 0.054 0.163 0.099 0.328 0.135 0.494 0.037 0.166 0.064 0.332 0.083 0.497 0.055 0.497 0.03 0.99-0.065 1.447-0.132 0.607-0.375 1.141-0.665 1.58-0.073 0.11-0.15 0.214-0.227 0.312 0.098 0.094 0.196 0.194 0.292 0.299 0.195 0.211 0.385 0.444 0.566 0.698 0.09 0.126 0.178 0.259 0.261 0.396 0.2 0.329 0.378 0.688 0.531 1.065 0.011 0.029 0.026 0.056 0.037 0.085 0.158 0.41 0.276 0.843 0.364 1.283 0.012 0.078 0.019 0.157 0.03 0.235 0.051 0.366 0.086 0.733 0.084 1.096-5e-3 0.44-0.046 0.871-0.122 1.281-0.034 0.182-0.077 0.357-0.123 0.529 0.035-8e-3 0.07-0.017 0.106-0.023 0.153-0.03 0.308-0.051 0.464-0.068 0.313-0.034 0.631-0.046 0.949-0.036 0.477 0.033 0.947 0.112 1.393 0.244 0.395 0.124 0.769 0.282 1.114 0.469 0.042 0.022 0.085 0.044 0.126 0.067 0.156 0.09 0.305 0.185 0.447 0.284 0.142 0.101 0.276 0.204 0.403 0.311 0.255 0.213 0.48 0.437 0.673 0.663 1e-3 -1e-3 1e-3 -1e-3 2e-3 -1e-3 0.033-0.022 0.067-0.043 0.101-0.065 0.01-6e-3 0.023-0.013 0.034-0.019 0.126-0.079 0.259-0.155 0.402-0.229 0.019-0.01 0.039-0.019 0.058-0.029 0.153-0.078 0.313-0.152 0.486-0.222 0.558-0.228 1.22-0.402 1.941-0.46 0.145-0.012 0.292-0.019 0.44-0.021 0.298-4e-3 0.602 0.013 0.913 0.053 0.154 0.02 0.31 0.046 0.465 0.078 0.156 0.032 0.311 0.069 0.466 0.114 0.309 0.088 0.615 0.2 0.913 0.336 0.597 0.267 1.158 0.632 1.663 1.062 0.124 0.109 0.244 0.223 0.361 0.34 0.116 0.118 0.228 0.239 0.337 0.363 0.216 0.25 0.412 0.513 0.587 0.789 0.087 0.138 0.17 0.278 0.247 0.42 0.153 0.284 0.284 0.579 0.39 0.876 0.053 0.149 0.1 0.297 0.141 0.447 0.088 0.317 0.14 0.632 0.176 0.942 6e-3 0.057 0.017 0.115 0.022 0.172 0.855 0.349 1.797 0.828 2.71 1.494 0.528 0.385 1.048 0.833 1.517 1.343 0.474 0.508 0.901 1.078 1.265 1.689 0.088 0.154 0.174 0.311 0.254 0.471 0.242 0.478 0.44 0.979 0.583 1.491 0.097 0.342 0.17 0.687 0.217 1.032 0.047 0.347 0.07 0.691 0.065 1.035-0.013 1.031-0.273 1.978-0.65 2.763-0.127 0.261-0.266 0.505-0.413 0.727-0.018 0.029-0.036 0.054-0.055 0.08-0.013 0.018-0.026 0.037-0.039 0.056 0.095 0.307 0.181 0.625 0.252 0.955 0.039 0.181 0.067 0.369 0.097 0.555 0.03 0.185 0.056 0.373 0.078 0.565 0.022 0.191 0.046 0.38 0.059 0.574 0.035 0.584 0.022 1.179-0.024 1.774-0.042 0.393-0.105 0.782-0.18 1.168-0.037 0.195-0.073 0.392-0.12 0.583-0.116 0.449-0.259 0.881-0.417 1.298-0.041 0.11-0.079 0.224-0.123 0.333-0.106 0.256-0.221 0.505-0.341 0.744-0.239 0.477-0.501 0.917-0.767 1.313-0.135 0.197-0.27 0.383-0.404 0.558-0.069 0.087-0.137 0.17-0.204 0.252-0.27 0.324-0.531 0.601-0.771 0.833-0.179 0.173-0.345 0.321-0.493 0.441-0.19 0.168-0.355 0.283-0.464 0.364-0.027 0.02-0.051 0.038-0.073 0.053-0.063 0.044-0.096 0.069-0.096 0.069s0.039-0.061 0.111-0.175c0.018-0.028 0.038-0.06 0.061-0.095 0.066-0.104 0.151-0.238 0.251-0.397 0.266-0.42 0.624-1.026 0.988-1.771 0.091-0.186 0.183-0.381 0.272-0.584 0.181-0.407 0.358-0.843 0.521-1.305 0.083-0.231 0.161-0.468 0.235-0.711 0.146-0.484 0.269-0.99 0.379-1.506 0.098-0.52 0.18-1.048 0.229-1.579 0.049-0.532 0.063-1.066 0.061-1.592-0.016-0.526-0.043-1.045-0.1-1.546-3e-3 -0.025-8e-3 -0.05-0.011-0.075-0.266 0.224-0.522 0.398-0.742 0.522-0.268 0.144-0.481 0.245-0.634 0.294-0.15 0.053-0.23 0.082-0.23 0.082s0.067-0.053 0.19-0.152c0.128-0.091 0.299-0.248 0.507-0.444 0.05-0.051 0.103-0.106 0.156-0.164 0.16-0.174 0.332-0.381 0.5-0.62 0.057-0.079 0.113-0.163 0.168-0.25 0.165-0.26 0.323-0.554 0.459-0.881 0.371-0.859 0.61-1.943 0.529-3.067-0.04-0.559-0.16-1.14-0.343-1.704-0.188-0.565-0.436-1.124-0.75-1.65-0.308-0.531-0.675-1.029-1.07-1.494-0.4-0.463-0.826-0.89-1.274-1.276-0.631-0.547-1.287-1.012-1.914-1.416-0.03 0.403-0.095 0.783-0.185 1.13-0.119 0.469-0.279 0.877-0.451 1.223-0.085 0.173-0.174 0.331-0.261 0.473-0.086 0.142-0.171 0.268-0.251 0.378-0.062 0.082-0.118 0.153-0.171 0.219-0.089 0.111-0.168 0.203-0.233 0.268-0.025 0.026-0.047 0.049-0.066 0.068-0.057 0.06-0.087 0.091-0.087 0.091s7e-3 -0.018 0.021-0.052c0.015-0.034 0.036-0.084 0.065-0.151 0.03-0.064 0.063-0.146 0.1-0.242 0.019-0.048 0.039-0.099 0.059-0.154 0.021-0.055 0.042-0.113 0.066-0.174 0.041-0.124 0.085-0.261 0.127-0.411 0.022-0.076 0.043-0.153 0.063-0.234 0.041-0.162 0.079-0.337 0.112-0.522 0.017-0.092 0.032-0.187 0.045-0.285 0.027-0.195 0.048-0.4 0.057-0.614 0.05-0.851-0.048-1.843-0.41-2.794-0.179-0.474-0.426-0.936-0.73-1.371-0.306-0.431-0.666-0.837-1.076-1.188-0.406-0.355-0.861-0.653-1.333-0.895-0.474-0.239-0.968-0.419-1.466-0.531-0.982-0.223-1.968-0.186-2.802-0.028 0.309 0.01 0.637 0.051 0.951 0.137 0.539 0.142 1.03 0.372 1.389 0.549 0.357 0.184 0.593 0.306 0.593 0.306s-0.256-0.073-0.642-0.182c-0.384-0.103-0.902-0.228-1.414-0.258-0.511-0.034-1.007 0.047-1.337 0.171-0.079 0.029-0.147 0.059-0.207 0.087 0.135 0.263 0.233 0.504 0.292 0.701 0.066 0.181 0.089 0.333 0.112 0.432 0.02 0.1 0.03 0.155 0.03 0.155s-0.035-0.043-0.103-0.12c-0.067-0.076-0.153-0.195-0.282-0.328-0.244-0.277-0.611-0.643-1.088-1.007-0.479-0.361-1.068-0.721-1.732-0.995-0.334-0.135-0.687-0.243-1.047-0.335-0.363-0.078-0.733-0.135-1.105-0.156-0.14-5e-3 -0.28-3e-3 -0.42 1e-3 0.517 0.171 0.982 0.426 1.299 0.654 0.164 0.116 0.293 0.22 0.379 0.296 0.088 0.076 0.136 0.119 0.136 0.119s-3e-3 -1e-3 -0.011-5e-3c-0.021-0.01-0.074-0.035-0.153-0.07-0.103-0.049-0.255-0.112-0.438-0.173-0.366-0.131-0.869-0.238-1.365-0.25-0.497-0.014-0.979 0.067-1.326 0.164-0.316 0.087-0.524 0.172-0.559 0.187-0.197 0.275-0.388 0.501-0.55 0.663-0.127 0.139-0.242 0.234-0.317 0.301-0.076 0.065-0.118 0.1-0.118 0.1s0.073-0.201 0.199-0.547c0.124-0.341 0.282-0.828 0.415-1.409s0.241-1.256 0.277-1.972c0.018-0.359 0.012-0.727-5e-3 -1.098-0.028-0.37-0.068-0.744-0.136-1.111-0.067-0.369-0.163-0.731-0.268-1.087-0.118-0.352-0.241-0.697-0.385-1.025-0.208-0.471-0.443-0.907-0.68-1.3-0.348 0.286-0.691 0.482-0.975 0.603-0.027 0.011-0.051 0.02-0.077 0.031-0.059 0.023-0.114 0.044-0.167 0.064-0.107 0.037-0.202 0.066-0.285 0.087-0.041 0.011-0.079 0.02-0.112 0.027-0.151 0.029-0.231 0.044-0.231 0.044s0.07-0.042 0.201-0.119c0.13-0.077 0.315-0.198 0.527-0.372 0.212-0.172 0.452-0.403 0.682-0.694 0.058-0.072 0.114-0.149 0.169-0.228 0.167-0.241 0.323-0.513 0.453-0.819 0.172-0.405 0.293-0.862 0.331-1.341 0.016-0.239 0.01-0.484-0.019-0.732-0.014-0.125-0.036-0.248-0.062-0.373-0.027-0.124-0.06-0.248-0.099-0.371-0.077-0.247-0.18-0.49-0.304-0.726-0.125-0.234-0.271-0.461-0.436-0.675-0.084-0.106-0.173-0.207-0.266-0.305-0.093-0.1-0.19-0.194-0.291-0.285-0.205-0.178-0.425-0.336-0.657-0.473-0.235-0.136-0.484-0.248-0.74-0.342-0.26-0.087-0.527-0.154-0.797-0.203-0.542-0.085-1.095-0.09-1.623-8e-3 -0.574 0.083-1.108 0.269-1.586 0.514 0.131-0.033 0.272-0.06 0.418-0.085 0.146-0.024 0.298-0.046 0.454-0.063 0.395-0.035 0.814-0.034 1.228 3e-3 0.414 0.047 0.818 0.13 1.186 0.241 0.365 0.12 0.697 0.25 0.964 0.395 0.068 0.033 0.132 0.067 0.192 0.101 0.06 0.035 0.116 0.069 0.168 0.102 0.105 0.062 0.195 0.12 0.265 0.173 0.142 0.103 0.222 0.161 0.222 0.161s-0.088-0.047-0.242-0.13c-0.075-0.043-0.172-0.088-0.282-0.135-0.11-0.051-0.236-0.104-0.377-0.152-0.277-0.106-0.615-0.189-0.975-0.256-0.363-0.059-0.754-0.085-1.142-0.078-0.388 0.016-0.771 0.066-1.121 0.144-0.349 0.088-0.668 0.185-0.926 0.303-0.131 0.052-0.248 0.109-0.347 0.164-0.103 0.05-0.19 0.097-0.259 0.142-0.01 6e-3 -0.017 0.01-0.026 0.016 0.086 0.203 0.144 0.396 0.173 0.562 0.044 0.259 0.045 0.461 0.034 0.597l-0.023 0.207s-0.02-0.068-0.058-0.196c-0.037-0.126-0.107-0.307-0.217-0.515-0.084-0.154-0.199-0.325-0.345-0.495-0.049-0.057-0.101-0.114-0.157-0.17-0.223-0.226-0.501-0.443-0.841-0.617-0.251-0.137-0.53-0.241-0.826-0.305-0.199-0.044-0.407-0.07-0.62-0.077-0.319-0.012-0.653 0.018-0.993 0.094-0.451 0.101-0.905 0.275-1.343 0.508-0.432 0.24-0.858 0.523-1.227 0.872-0.05 0.04-0.098 0.082-0.144 0.125s-0.091 0.088-0.136 0.134c-0.088 0.092-0.175 0.185-0.264 0.274-0.159 0.199-0.333 0.385-0.474 0.595-0.076 0.102-0.148 0.206-0.217 0.311-0.068 0.105-0.134 0.212-0.197 0.32-0.125 0.215-0.239 0.436-0.345 0.655-0.195 0.424-0.35 0.851-0.472 1.269 0.581 0.117 1.018 0.352 1.286 0.548 0.14 0.106 0.242 0.194 0.306 0.263 0.062 0.066 0.096 0.102 0.096 0.102s-0.048-0.012-0.137-0.032c-0.086-0.025-0.218-0.048-0.376-0.078-0.323-0.047-0.775-0.084-1.287-8e-3 -0.511 0.067-1.084 0.233-1.615 0.526-0.263 0.146-0.525 0.326-0.771 0.529-0.245 0.206-0.482 0.433-0.693 0.687-0.109 0.124-0.212 0.255-0.309 0.389-0.097 0.135-0.19 0.273-0.279 0.412-0.173 0.282-0.33 0.568-0.465 0.862-0.116 0.251-0.216 0.504-0.307 0.753 0.284 0.154 0.515 0.311 0.691 0.455 0.185 0.13 0.307 0.265 0.395 0.346 0.041 0.04 0.071 0.07 0.093 0.093 0.024 0.023 0.038 0.036 0.038 0.036s-0.062-0.021-0.175-0.062c-0.115-0.038-0.27-0.111-0.483-0.168-0.414-0.136-1.015-0.279-1.726-0.326-0.713-0.045-1.539 6e-3 -2.371 0.22-0.418 0.109-0.83 0.264-1.233 0.447-0.395 0.201-0.776 0.433-1.126 0.705-0.258 0.209-0.498 0.442-0.721 0.688-0.075 0.082-0.147 0.166-0.219 0.25-0.024 0.032-0.045 0.065-0.07 0.097l0.033-0.027c0.457-0.391 1.121-0.84 1.833-1.178 0.356-0.168 0.721-0.309 1.07-0.421 0.087-0.027 0.172-0.053 0.256-0.078 0.254-0.072 0.493-0.127 0.707-0.166 0.284-0.057 0.523-0.086 0.69-0.102 0.126-0.012 0.21-0.019 0.245-0.023 0.011-1e-3 0.018-2e-3 0.018-2e-3s-0.053 0.013-0.148 0.035c-0.032 7e-3 -0.068 0.016-0.109 0.025-0.163 0.039-0.394 0.101-0.664 0.194-0.543 0.177-1.234 0.495-1.861 0.905-0.234 0.155-0.46 0.322-0.667 0.491-0.348 0.282-0.649 0.573-0.878 0.83-0.105 0.115-0.195 0.221-0.271 0.315 0.2 0.043 0.395 0.089 0.586 0.141 0.382 0.102 0.746 0.218 1.089 0.346 0.172 0.063 0.339 0.13 0.5 0.198 0.336 0.142 0.648 0.292 0.94 0.444 0.822 0.429 1.466 0.877 1.931 1.235 0.314 0.248 0.554 0.448 0.709 0.594 0.156 0.144 0.239 0.221 0.239 0.221v-1e-3s-6e-3 -3e-3 -0.018-0.01c-0.025-0.013-0.074-0.039-0.146-0.077-0.035-0.02-0.076-0.042-0.123-0.067-0.184-0.104-0.461-0.244-0.811-0.422-0.264-0.128-0.573-0.273-0.924-0.422-0.234-0.1-0.485-0.201-0.753-0.301-0.404-0.15-0.845-0.295-1.323-0.426-1.264-0.351-2.787-0.592-4.386-0.462-0.798 0.062-1.602 0.224-2.392 0.486-0.788 0.267-1.558 0.628-2.261 1.089-0.708 0.454-1.34 1.015-1.873 1.636-0.528 0.621-0.958 1.317-1.243 2.029-0.577 1.437-0.588 2.979-0.311 4.217 0.133 0.625 0.34 1.183 0.584 1.649 0.23 0.477 0.508 0.85 0.743 1.157 0.252 0.288 0.46 0.518 0.622 0.651 0.079 0.072 0.139 0.128 0.179 0.165s0.061 0.055 0.061 0.055-0.1-0.054-0.287-0.154c-0.049-0.024-0.101-0.052-0.158-0.087-0.057-0.034-0.116-0.072-0.181-0.116-0.129-0.087-0.274-0.194-0.435-0.318-0.127-0.109-0.267-0.237-0.41-0.377-0.517 0.494-0.993 1.103-1.316 1.82-0.232 0.511-0.375 1.065-0.423 1.642-0.022 0.288-0.021 0.582 5e-3 0.875 0.012 0.146 0.03 0.292 0.055 0.438s0.055 0.291 0.092 0.434c0.139 0.577 0.377 1.13 0.679 1.629 0.306 0.498 0.682 0.942 1.104 1.303 0.63 0.546 1.377 0.905 2.09 1.057 0.118 0.025 0.236 0.045 0.352 0.059s0.231 0.023 0.343 0.025c0.905 0.029 1.655-0.352 2.086-0.712 0.054-0.045 0.104-0.091 0.15-0.135 0.092-0.088 0.168-0.172 0.229-0.246 0.031-0.037 0.057-0.072 0.08-0.104 0.093-0.126 0.138-0.201 0.138-0.201 1e-3 1e-3 -0.015 0.081-0.063 0.226-1e-3 4e-3 -2e-3 7e-3 -3e-3 0.012-0.049 0.154-0.147 0.376-0.325 0.634-0.139 0.194-0.33 0.41-0.579 0.611 0.019 0.018 0.036 0.036 0.055 0.054 0.099 0.088 0.203 0.172 0.31 0.254s0.217 0.16 0.328 0.238c0.229 0.145 0.465 0.283 0.712 0.395 0.248 0.112 0.507 0.2 0.768 0.277 0.265 0.065 0.53 0.122 0.794 0.157 0.528 0.065 1.044 0.058 1.496 0.014 0.114-0.011 0.223-0.025 0.327-0.04 0.209-0.031 0.398-0.069 0.563-0.107 0.082-0.019 0.158-0.039 0.227-0.058 0.28-0.078 0.443-0.124 0.443-0.124s-0.025 0.035-0.073 0.099c-0.049 0.062-0.12 0.161-0.229 0.264-0.093 0.098-0.217 0.21-0.364 0.323 0.022 0.019 0.042 0.039 0.065 0.057 0.591 0.488 1.337 0.971 2.193 1.333 0.429 0.18 0.886 0.317 1.353 0.432 0.472 0.096 0.955 0.158 1.439 0.169 0.242 1e-3 0.484-9e-3 0.726-0.031 0.241-0.021 0.481-0.054 0.72-0.094 0.473-0.099 0.936-0.224 1.374-0.391 0.874-0.334 1.644-0.796 2.258-1.266 0.231-0.177 0.439-0.356 0.626-0.53 0.063-0.057 0.122-0.114 0.179-0.171 0.23-0.225 0.42-0.436 0.57-0.616 0.08-0.088 0.146-0.171 0.202-0.244 0.055-0.072 0.102-0.137 0.143-0.186 0.081-0.102 0.124-0.156 0.124-0.156l-3e-3 0.012c-8e-3 0.024-0.023 0.085-0.049 0.178-0.019 0.062-0.038 0.14-0.065 0.23-0.015 0.045-0.03 0.094-0.049 0.145-0.018 0.051-0.038 0.104-0.063 0.16-0.077 0.207-0.186 0.449-0.334 0.714-0.073 0.132-0.157 0.271-0.25 0.413-0.094 0.142-0.198 0.288-0.312 0.436 0.61 0.422 1.302 0.834 2.062 1.12 0.514 0.196 1.064 0.336 1.623 0.401 0.558 0.068 1.124 0.048 1.659-0.068 0.535-0.118 1.029-0.34 1.474-0.654 0.439-0.319 0.831-0.715 1.154-1.155 0.327-0.438 0.586-0.908 0.795-1.38 0.052-0.119 0.101-0.237 0.148-0.355 0.138-0.354 0.252-0.705 0.347-1.041 0.254-0.9 0.394-1.691 0.505-2.244 0.105-0.554 0.174-0.873 0.174-0.873s0.014 0.082 0.034 0.235c5e-3 0.037 9e-3 0.08 0.015 0.126 0.011 0.092 0.024 0.201 0.036 0.325 7e-3 0.063 0.013 0.128 0.019 0.198 0.018 0.2 0.036 0.432 0.048 0.692 0.038-4e-3 0.077-5e-3 0.115-0.01 0.231-0.026 0.463-0.074 0.694-0.126 0.228-0.063 0.455-0.134 0.673-0.227 0.217-0.092 0.427-0.206 0.63-0.326 0.199-0.13 0.394-0.266 0.574-0.413 0.358-0.298 0.667-0.627 0.915-0.942 0.124-0.158 0.232-0.312 0.325-0.455 0.046-0.071 0.089-0.139 0.127-0.203s0.073-0.125 0.104-0.181c0.124-0.227 0.197-0.362 0.197-0.362s9e-3 0.037 0.027 0.106c0.013 0.07 0.041 0.174 0.05 0.308 0.031 0.267 0.025 0.662-0.094 1.126-0.032 0.119-0.072 0.242-0.12 0.367 0.415 0.327 0.863 0.654 1.353 0.949 0.399 0.239 0.828 0.452 1.274 0.63 0.447 0.175 0.912 0.315 1.382 0.388 0.468 0.08 0.941 0.104 1.395 0.056 0.113-0.012 0.225-0.029 0.337-0.049 0.221-0.041 0.438-0.097 0.649-0.168 0.105-0.035 0.208-0.075 0.31-0.117 0.819-0.341 1.506-0.905 2.02-1.468 0.027-0.029 0.052-0.058 0.078-0.087l-0.019-0.012s0.024-0.033 0.066-0.097c0.022-0.031 0.048-0.07 0.078-0.116 0.031-0.047 0.065-0.101 0.103-0.161 0.155-0.242 0.36-0.599 0.566-1.051 0.411-0.899 0.786-2.209 0.79-3.567 0.015-0.847-0.117-1.694-0.319-2.442-0.041-0.15-0.085-0.296-0.13-0.437-0.092-0.282-0.192-0.544-0.296-0.782-0.207-0.477-0.419-0.858-0.58-1.118-0.158-0.261-0.259-0.405-0.259-0.405s0.118 0.13 0.31 0.37c0.193 0.24 0.454 0.596 0.726 1.052 0.204 0.341 0.409 0.745 0.593 1.193 0.062 0.149 0.121 0.303 0.178 0.461 0.113 0.317 0.213 0.651 0.296 0.996 0.082 0.346 0.147 0.703 0.187 1.067 0.021 0.182 0.038 0.364 0.049 0.546 0.073 1.273-0.135 2.534-0.429 3.471-0.041 0.129-0.082 0.253-0.123 0.37-0.041 0.118-0.083 0.229-0.124 0.332-0.082 0.208-0.16 0.388-0.23 0.537 0.218 0.048 0.445 0.089 0.679 0.121 0.278 0.037 0.563 0.054 0.85 0.065 0.288 1e-3 0.579-6e-3 0.867-0.038 0.288-0.03 0.574-0.084 0.855-0.145 0.28-0.071 0.556-0.15 0.82-0.243 0.528-0.191 1.011-0.427 1.421-0.662s0.745-0.472 0.98-0.649c0.059-0.045 0.112-0.085 0.158-0.121 0.14-0.105 0.218-0.164 0.218-0.164s-3e-3 0.01-9e-3 0.03c-5e-3 0.021-0.014 0.05-0.026 0.09-0.025 0.077-0.058 0.195-0.121 0.334-0.041 0.1-0.099 0.218-0.165 0.342 0.601 0.355 1.222 0.834 1.779 1.442 0.363 0.398 0.695 0.85 0.985 1.343 0.142 0.247 0.269 0.506 0.384 0.773 0.057 0.133 0.112 0.268 0.163 0.404 0.049 0.137 0.097 0.275 0.142 0.414 0.078 0.281 0.143 0.567 0.194 0.852 0.025 0.143 0.046 0.286 0.063 0.429 0.017 0.144 0.031 0.287 0.039 0.43 7e-3 0.143 0.01 0.285 0.01 0.426-1e-3 0.142-4e-3 0.283-0.011 0.422-0.015 0.279-0.042 0.553-0.086 0.821-0.171 1.069-0.554 2.014-0.988 2.744-0.444 0.73-0.925 1.251-1.293 1.57-0.174 0.168-0.336 0.276-0.437 0.354-0.104 0.076-0.16 0.117-0.16 0.117s2e-3 -4e-3 7e-3 -0.011c9e-3 -0.015 0.026-0.044 0.051-0.087 0.012-0.021 0.027-0.045 0.043-0.073 0.048-0.083 0.12-0.189 0.199-0.326 0.026-0.045 0.053-0.095 0.08-0.147 0.221-0.384 0.495-0.943 0.731-1.621 0.014-0.038 0.028-0.072 0.04-0.111 7e-3 -0.021 0.012-0.042 0.019-0.062 0.232-0.72 0.416-1.566 0.467-2.47 0.021-0.385 7e-3 -0.778-0.02-1.173-6e-3 -0.083-7e-3 -0.166-0.015-0.251-0.06-0.477-0.151-0.955-0.287-1.42-0.141-0.464-0.328-0.913-0.54-1.344-0.059-0.11-0.123-0.215-0.185-0.322-0.118-0.207-0.244-0.406-0.375-0.6-0.063-0.094-0.123-0.193-0.19-0.282-0.312-0.422-0.652-0.803-0.997-1.14-0.114-0.112-0.23-0.219-0.346-0.322 0 1e-3 -2e-3 2e-3 -2e-3 3e-3 -0.08 0.094-0.168 0.187-0.262 0.281-0.031 0.03-0.065 0.06-0.098 0.09-0.067 0.064-0.134 0.127-0.209 0.19-0.042 0.035-0.086 0.07-0.13 0.105-0.071 0.056-0.142 0.111-0.218 0.165-0.049 0.036-0.101 0.069-0.152 0.104-0.04 0.027-0.077 0.055-0.118 0.081-0.069 0.043-0.14 0.085-0.213 0.126-0.01 6e-3 -0.022 0.01-0.032 0.016-0.116 0.064-0.237 0.123-0.361 0.179-0.187 0.086-0.38 0.165-0.582 0.232-0.086 0.028-0.177 0.047-0.266 0.071-0.267 0.071-0.539 0.128-0.817 0.163-0.371 0.033-0.744 0.038-1.105 2e-3 -0.182-0.019-0.359-0.046-0.532-0.082-0.174-0.035-0.343-0.079-0.507-0.129-0.207-0.064-0.4-0.143-0.586-0.227-0.309-0.14-0.591-0.3-0.835-0.47 0 1e-3 -1e-3 2e-3 -1e-3 3e-3 -0.051 0.078-0.106 0.155-0.162 0.232-0.019 0.026-0.04 0.052-0.059 0.077-0.041 0.053-0.08 0.105-0.123 0.157-0.025 0.032-0.052 0.062-0.078 0.093-0.04 0.047-0.08 0.094-0.123 0.141-0.029 0.032-0.058 0.063-0.089 0.095-0.043 0.045-0.086 0.09-0.13 0.134-0.032 0.032-0.065 0.063-0.098 0.094-0.046 0.043-0.094 0.087-0.142 0.128-0.035 0.031-0.069 0.061-0.105 0.091-0.051 0.042-0.103 0.083-0.156 0.124-0.037 0.028-0.073 0.056-0.111 0.084-0.056 0.041-0.115 0.081-0.175 0.121-0.036 0.025-0.073 0.05-0.11 0.074-0.011 7e-3 -0.021 0.015-0.032 0.021-0.084 0.053-0.171 0.104-0.26 0.153-0.125 0.069-0.255 0.134-0.389 0.192-0.238 0.106-0.49 0.192-0.748 0.262-0.176 0.047-0.356 0.087-0.538 0.116-0.3 0.049-0.603 0.068-0.907 0.062-0.302-5e-3 -0.604-0.035-0.9-0.081-0.592-0.1-1.161-0.278-1.684-0.52-0.091-0.04-0.178-0.084-0.266-0.129-0.422-0.21-0.816-0.457-1.174-0.724-0.33-0.249-0.628-0.512-0.898-0.778-0.091-0.088-0.178-0.177-0.262-0.267-0.039 0.054-0.074 0.107-0.116 0.159-0.098 0.12-0.205 0.236-0.32 0.347s-0.238 0.217-0.369 0.318c-0.093 0.072-0.192 0.14-0.293 0.203-0.027 0.017-0.057 0.032-0.084 0.048-0.031 0.018-0.06 0.035-0.09 0.051-0.129 0.073-0.261 0.143-0.398 0.205-0.235 0.094-0.478 0.164-0.721 0.219-0.081 0.019-0.162 0.042-0.243 0.055-0.163 0.024-0.324 0.039-0.484 0.044-0.159 6e-3 -0.317 2e-3 -0.47-0.01-0.037-2e-3 -0.072-0.01-0.108-0.015-8e-3 0.149-0.016 0.3-0.029 0.458-0.053 0.558-0.165 1.188-0.376 1.836-0.161 0.493-0.378 0.995-0.68 1.486-0.172 0.283-0.372 0.559-0.602 0.822-0.115 0.131-0.236 0.258-0.365 0.381s-0.265 0.24-0.408 0.352c-0.131 0.104-0.27 0.201-0.413 0.29-7e-3 5e-3 -0.015 8e-3 -0.023 0.013-0.028 0.018-0.057 0.033-0.085 0.049-0.117 0.069-0.237 0.133-0.36 0.193-0.049 0.024-0.098 0.046-0.147 0.068-0.111 0.05-0.223 0.095-0.338 0.137-0.048 0.018-0.095 0.036-0.144 0.052-0.16 0.053-0.322 0.101-0.485 0.139-0.091 0.018-0.182 0.029-0.273 0.043-0.546 0.088-1.093 0.099-1.62 0.036-0.087-0.01-0.176-0.016-0.263-0.031-0.086-0.014-0.171-0.034-0.255-0.05-0.598-0.117-1.162-0.312-1.674-0.559-0.892-0.429-1.606-0.995-2.189-1.557-0.111 0.107-0.229 0.212-0.352 0.316-0.034 0.03-0.069 0.058-0.103 0.087-0.101 0.082-0.206 0.163-0.314 0.243-0.031 0.023-0.061 0.046-0.092 0.069-0.124 0.089-0.252 0.176-0.384 0.259-0.011 6e-3 -0.023 0.011-0.033 0.018-0.18 0.111-0.368 0.218-0.563 0.317-0.391 0.197-0.814 0.36-1.255 0.491-0.113 0.033-0.226 0.066-0.341 0.096-0.358 0.084-0.727 0.137-1.099 0.168-0.132 0.011-0.264 0.019-0.396 0.024-0.089 3e-3 -0.177 7e-3 -0.264 7e-3 -0.597-0.02-1.188-0.101-1.748-0.251-0.397-0.112-0.777-0.254-1.136-0.42-0.147-0.067-0.291-0.138-0.431-0.213-0.958-0.525-1.71-1.22-2.232-1.892-0.05-0.065-0.097-0.131-0.142-0.195-0.237 0.116-0.509 0.219-0.806 0.298-0.297 0.078-0.619 0.132-0.958 0.148-0.342 0.017-0.698-7e-3 -1.055-0.069-0.247-0.045-0.49-0.121-0.731-0.207-0.108-0.039-0.217-0.075-0.322-0.12-0.099-0.047-0.193-0.102-0.288-0.155-0.229-0.125-0.45-0.261-0.651-0.42-0.141-0.112-0.274-0.231-0.397-0.356-0.124-0.125-0.239-0.254-0.345-0.386z"
       id="path46" /><path
       d="m306.2 28.22c-0.373 0.395-0.806 0.785-1.267 1.142-0.483 0.326-0.989 0.616-1.482 0.846-0.505 0.202-0.985 0.367-1.407 0.463-0.211 0.048-0.406 0.078-0.58 0.1-0.173 0.025-0.324 0.045-0.449 0.051-0.25 9e-3 -0.392 0.014-0.392 0.014s0.135-0.044 0.373-0.121c0.118-0.03 0.261-0.079 0.422-0.137 0.162-0.054 0.344-0.121 0.534-0.208 0.394-0.138 0.833-0.352 1.287-0.599 0.458-0.24 0.925-0.534 1.365-0.862 0.45-0.317 0.875-0.667 1.246-1.027 0.377-0.354 0.716-0.704 0.971-1.034 0.141-0.155 0.261-0.305 0.363-0.442 0.107-0.135 0.197-0.255 0.263-0.358 0.148-0.201 0.232-0.316 0.232-0.316s-0.05 0.134-0.136 0.368c-0.045 0.116-0.109 0.253-0.188 0.409-0.075 0.158-0.165 0.334-0.275 0.52-0.223 0.37-0.53 0.774-0.88 1.191z"
       id="path48" /><path
       d="m309.3 35.66c-0.25 0.16-0.487 0.297-0.7 0.396-0.219 0.089-0.405 0.149-0.536 0.186-0.134 0.029-0.21 0.044-0.21 0.044s0.058-0.051 0.161-0.141c0.106-0.081 0.254-0.199 0.418-0.355 0.176-0.136 0.366-0.311 0.56-0.505 0.203-0.182 0.406-0.39 0.595-0.609 0.204-0.205 0.395-0.423 0.562-0.64 0.177-0.208 0.338-0.41 0.46-0.596 0.141-0.175 0.249-0.332 0.322-0.443 0.081-0.109 0.128-0.172 0.128-0.172s-0.01 0.078-0.026 0.213c-0.027 0.132-0.071 0.322-0.143 0.546-0.082 0.219-0.201 0.466-0.34 0.727-0.159 0.248-0.346 0.502-0.55 0.743-0.226 0.222-0.465 0.428-0.701 0.606z"
       id="path50" /></g><path
     d="m300.1 53.19 2.381-5.716s0.145-0.328 0.731-0.265c0.587 0.064-2.352 6.381-2.352 6.381z"
     fill="#737373"
     id="path53" /><g
     id="vape"
     fill-rule="nonzero"><path
       d="m281.8 96.06-11.98 30.07c0.05 0.051 0.152 0.151 0.298 0.291 0.015 0.013 0.03 0.027 0.044 0.041l12-30.13c-0.039-0.028-0.077-0.055-0.111-0.08-0.109-0.079-0.194-0.142-0.256-0.189z"
       id="path55" /><path
       d="m287.2 82.38-5.322 13.36c0.055 0.043 0.165 0.131 0.325 0.255 0.011 9e-3 0.024 0.019 0.037 0.029l5.344-13.42c-0.027-0.016-0.055-0.031-0.08-0.046-0.134-0.079-0.237-0.14-0.304-0.18z"
       id="path57" /><path
       d="m285.3 97.92 1.442-3.62c-0.027-0.018-0.064-0.041-0.113-0.072-0.108-0.062-0.253-0.174-0.436-0.332-0.082-0.084-0.178-0.177-0.275-0.285-0.038-0.048-0.077-0.098-0.118-0.15l-1.545 3.879c0.158 0.094 0.32 0.188 0.488 0.283 0.18 0.1 0.367 0.198 0.557 0.297z"
       id="path59" /><path
       d="m291.5 72.87 1.506-3.781c-0.023-0.012-0.045-0.024-0.065-0.034-0.148-0.078-0.258-0.138-0.327-0.174l-1.5 3.767c0.059 0.035 0.182 0.104 0.358 0.205 8e-3 5e-3 0.019 0.011 0.028 0.017z"
       id="path61" /><path
       d="m289.9 76.93 1.498-3.762c-0.022-0.012-0.045-0.024-0.065-0.034-0.148-0.078-0.258-0.137-0.326-0.174l-1.462 3.669c0.08 0.085 0.18 0.173 0.298 0.261 0.017 0.013 0.038 0.027 0.057 0.04z"
       id="path63" /><path
       d="m304.6 66.49c-0.087 0.288-0.16 0.527-0.21 0.695-0.046 0.171-0.071 0.267-0.071 0.267s0.048-0.088 0.132-0.243c0.079-0.156 0.191-0.38 0.326-0.649 0.125-0.273 0.271-0.591 0.427-0.933 0.145-0.345 0.3-0.713 0.455-1.081 0.141-0.375 0.282-0.749 0.414-1.099 0.12-0.356 0.233-0.686 0.331-0.971 0.086-0.287 0.158-0.528 0.209-0.695 0.046-0.17 0.072-0.267 0.072-0.267s-0.049 0.088-0.133 0.243c-0.078 0.157-0.19 0.381-0.326 0.649-0.124 0.274-0.27 0.592-0.426 0.933-0.146 0.345-0.301 0.713-0.455 1.082-0.142 0.374-0.282 0.748-0.414 1.098-0.121 0.355-0.234 0.687-0.331 0.971z"
       fill="#262626"
       id="path65" /><path
       d="m295 62.69c-0.104 0.282-0.18 0.519-0.239 0.684-0.055 0.167-0.086 0.261-0.086 0.261s0.042-0.09 0.117-0.249c0.071-0.16 0.179-0.385 0.297-0.661 0.117-0.275 0.261-0.595 0.403-0.942s0.293-0.716 0.444-1.086c0.144-0.373 0.289-0.745 0.424-1.095 0.136-0.349 0.25-0.679 0.355-0.961 0.104-0.28 0.181-0.518 0.239-0.684 0.055-0.165 0.087-0.26 0.087-0.26s-0.043 0.09-0.117 0.249c-0.071 0.159-0.179 0.386-0.297 0.661-0.118 0.276-0.262 0.595-0.403 0.942-0.142 0.346-0.294 0.716-0.445 1.086-0.144 0.372-0.289 0.745-0.424 1.094s-0.251 0.68-0.355 0.961z"
       fill="#262626"
       id="path67" /><path
       d="m298.1 56.34 0.761-1.91c-0.034-0.016-0.066-0.031-0.097-0.044-0.13-0.06-0.233-0.107-0.305-0.139l-0.755 1.897c0.071 0.035 0.179 0.088 0.321 0.159 0.024 0.011 0.049 0.024 0.075 0.037z"
       id="path69" /><g
       fill="#262626"
       id="g79"><path
         d="m303.8 48.4 0.092-0.233c1e-3 -1e-3 0-1e-3 -1e-3 -2e-3 -0.069-0.047-0.129-0.093-0.185-0.138l-0.108 0.272c0.026 0.012 0.054 0.026 0.085 0.043 0.036 0.018 0.074 0.037 0.117 0.058z"
         id="path71" /><path
         d="m302 52.8 1.679-4.215c-0.048-0.021-0.091-0.042-0.13-0.059-0.028-0.013-0.052-0.025-0.074-0.036l-1.677 4.208c0.026 0.013 0.054 0.028 0.085 0.043 0.036 0.019 0.075 0.038 0.117 0.059z"
         id="path73" /><path
         d="m305.4 49.17 0.07-0.176c-0.078-0.032-0.155-0.064-0.234-0.096-0.108-0.05-0.214-0.098-0.321-0.148l-0.066 0.167c0.091 0.042 0.183 0.085 0.278 0.13 0.088 0.04 0.182 0.081 0.273 0.123z"
         id="path75" /><path
         d="m297.1 64.43c0.204-0.116 0.402-0.243 0.545-0.348 0.143-0.104 0.231-0.186 0.231-0.186s-0.116 0.033-0.279 0.101c-0.164 0.068-0.375 0.17-0.58 0.284-0.204 0.116-0.401 0.243-0.544 0.348-0.143 0.104-0.232 0.186-0.232 0.186s0.117-0.033 0.28-0.102c0.163-0.067 0.374-0.169 0.579-0.283z"
         id="path77" /></g></g><text
     x="376.693px"
     y="174.205px"
     fill="#ff5a00"
     font-family="'UbuntuCondensed-Regular', 'Ubuntu Condensed', sans-serif"
     font-size="22.75px"
     id="text82"
     style="fill:#ff0000;">NIBO Distribution</text></svg>
