<?xml version="1.0" encoding="UTF-8" standalone="no"?>
<!DOCTYPE svg PUBLIC "-//W3C//DTD SVG 1.1//EN" "http://www.w3.org/Graphics/SVG/1.1/DTD/svg11.dtd">
<svg width="100%" height="100%" viewBox="0 0 1899 625" version="1.1" xmlns="http://www.w3.org/2000/svg" xmlns:xlink="http://www.w3.org/1999/xlink" xml:space="preserve" xmlns:serif="http://www.serif.com/" style="fill-rule:evenodd;clip-rule:evenodd;stroke-linejoin:round;stroke-miterlimit:2;">
    <g transform="matrix(1,0,0,1,-12.0051,-197.071)">
        <g transform="matrix(104.86,0,0,104.86,-10707.4,-24111)">
            <g id="path853" transform="matrix(0.147296,0,0,0.147296,100.606,205.1)">
                <path d="M11.097,181.428L11.097,200.743C11.097,204.253 10.827,207.595 13.774,210.086C16.664,212.528 20.729,212.646 24.326,212.649L40.73,212.649L120.105,212.649C123.814,212.649 127.78,212.668 130.935,210.417C133.988,208.237 133.864,205.185 133.864,201.801L133.864,193.07C133.864,191.116 134.146,188.878 133.569,186.988C133.009,185.157 131.537,183.773 129.889,182.888C126.191,180.903 121.77,181.428 117.724,181.428L11.097,181.428M49.461,208.151L44.17,208.151L44.17,189.101L22.739,189.101L22.739,208.151C20.736,208.081 18.837,207.572 18.066,205.492C17.333,203.516 17.711,200.964 17.711,198.891L17.711,185.397L39.936,185.397C42.49,185.397 46.484,184.655 48.328,186.872C49.774,188.611 49.461,191.229 49.461,193.335L49.461,208.151M57.928,185.397L57.928,208.151L52.372,208.151L52.372,185.397L57.928,185.397M61.632,208.151L61.632,185.397L82.005,185.397C84.629,185.397 88.587,184.675 90.964,185.955C92.885,186.988 93.101,188.993 93.116,190.953C93.144,194.833 93.133,198.715 93.117,202.595C93.11,204.377 93.106,206.32 91.444,207.411C89.231,208.864 85.327,208.151 82.799,208.151L61.632,208.151M101.585,185.58C103.618,185.158 105.868,185.397 107.934,185.397L119.311,185.397C121.76,185.397 124.365,185.202 126.321,186.962C128.417,188.848 128.307,191.544 128.307,194.128C128.308,198.872 129.718,206.47 123.545,207.923C121.523,208.399 119.258,208.151 117.195,208.151L105.818,208.151C103.308,208.151 100.722,208.277 98.757,206.433C96.656,204.461 96.822,201.805 96.822,199.155C96.821,194.47 95.385,186.864 101.585,185.58M66.13,190.16L66.13,194.922L88.62,194.922L88.62,190.16L66.13,190.16M101.849,190.16L101.849,203.389L123.28,203.389L123.28,190.16L101.849,190.16M66.13,199.42L66.13,204.182L88.62,204.182L88.62,199.42L66.13,199.42" style="fill:rgb(239,83,38);fill-rule:nonzero;"/>
            </g>
            <g transform="matrix(0.00919406,0,0,0.00418006,57.307,210.182)">
                <text x="4863.98px" y="6597.26px" style="font-family:'Arial-BoldMT', 'Arial', sans-serif;font-weight:700;font-size:300px;fill:rgb(240,83,38);">D<tspan x="5065.33px 5133.38px 5318.18px 5486.13px 5687.48px 5755.53px 5956.88px 6158.23px 6326.18px 6394.23px 6612.28px " y="6597.26px 6597.26px 6597.26px 6597.26px 6597.26px 6597.26px 6597.26px 6597.26px 6597.26px 6597.26px 6597.26px ">ISTRIBUTION</tspan></text>
            </g>
        </g>
    </g>
</svg>
